<svg width="77" height="24" viewBox="0 0 77 24" fill="none" xmlns="http://www.w3.org/2000/svg">
<path fill-rule="evenodd" clip-rule="evenodd" d="M40.7126 15.7974C41.4134 15.1729 41.7679 14.3664 41.7679 13.3703C41.7679 12.5638 41.5262 11.8839 41.0348 11.3384C40.5515 10.7929 39.8024 10.3185 38.7794 9.9153C37.9416 9.59115 37.3616 9.29071 37.0475 9.014C36.685 8.72147 36.4997 8.33408 36.4997 7.87552C36.4997 7.4565 36.6608 7.10863 36.975 6.8161C37.3536 6.49986 37.8852 6.33383 38.5538 6.33383C39.4077 6.33383 40.1649 6.51567 40.8415 6.87145L41.3248 5.35348C40.6079 4.98189 39.7057 4.80005 38.6263 4.80005C37.41 4.80005 36.4353 5.10839 35.7022 5.71716C34.9692 6.33383 34.5987 7.11654 34.5987 8.07317C34.5987 9.5358 35.6378 10.6506 37.7402 11.4175C38.5055 11.6942 39.0532 11.9946 39.3835 12.3188C39.7057 12.6429 39.8749 13.0382 39.8749 13.5126C39.8749 14.0423 39.6735 14.4692 39.2707 14.7855C38.876 15.1017 38.3121 15.2598 37.5952 15.2598C36.5964 15.2598 35.6781 15.0147 34.8403 14.5325L34.3973 16.09C35.1706 16.5722 36.1936 16.8173 37.4744 16.8173C38.8599 16.8173 39.9393 16.4774 40.7126 15.7974ZM9.00697 16.6435H11.0369L7.19453 4.96619H4.82627L1 16.6435H2.97355L4.0288 13.2122H7.89534L9.00697 16.6435ZM6.55816 8.72949L7.56507 11.7733H4.36712L5.35792 8.72949C5.61569 7.76495 5.80096 7.02968 5.92179 6.53159H5.96207C6.25206 7.68588 6.45344 8.41325 6.55816 8.72949ZM19.68 15.7263C20.4775 14.8961 20.8722 13.7656 20.8722 12.3345C20.8722 11.0459 20.5338 10.0181 19.8411 9.22745C19.1644 8.44474 18.3267 8.04944 17.3117 8.04944C16.0229 8.04944 15.0562 8.55543 14.4199 9.5595H14.3876L14.2829 8.22337H12.6074C12.6558 9.17211 12.6799 10.0892 12.6799 10.9905V20.0588H14.589V15.6393C15.0885 16.4378 15.902 16.8331 17.0378 16.8331C18.085 16.8331 18.9711 16.4694 19.68 15.7263ZM18.367 10.3738C18.7456 10.9035 18.9308 11.5756 18.9308 12.3978C18.9308 13.2912 18.7295 14.0027 18.3267 14.5483C17.9239 15.0859 17.3681 15.3626 16.6512 15.3626C16.039 15.3626 15.5396 15.1491 15.161 14.7301C14.7824 14.3111 14.589 13.7893 14.589 13.1805V11.7732C14.589 11.623 14.6212 11.4333 14.6776 11.204C14.7904 10.7059 15.0482 10.3106 15.4268 10.0022C15.8134 9.70181 16.2404 9.54369 16.7076 9.54369C17.4003 9.54369 17.9561 9.82041 18.367 10.3738ZM30.7325 12.3345C30.7325 13.7656 30.3378 14.8961 29.5403 15.7263C28.8315 16.4694 27.9454 16.8331 26.8982 16.8331C25.7624 16.8331 24.9488 16.4378 24.4494 15.6393V20.0588H22.5403V10.9905C22.5403 10.0892 22.5161 9.17211 22.4678 8.22337H24.1433L24.248 9.5595H24.2802C24.9166 8.55543 25.8832 8.04944 27.1721 8.04944C28.1871 8.04944 29.0248 8.44474 29.7015 9.22745C30.3942 10.0181 30.7325 11.0459 30.7325 12.3345ZM28.7912 12.3978C28.7912 11.5756 28.6059 10.9035 28.2273 10.3738C27.8165 9.82041 27.2607 9.54369 26.5679 9.54369C26.1007 9.54369 25.6738 9.70181 25.2871 10.0022C24.9085 10.3106 24.6588 10.7059 24.538 11.204C24.4816 11.4333 24.4494 11.623 24.4494 11.7732V13.1805C24.4494 13.7893 24.6427 14.3111 25.0213 14.7301C25.3999 15.1491 25.8993 15.3626 26.5115 15.3626C27.2285 15.3626 27.7923 15.0859 28.1871 14.5483C28.5979 14.0027 28.7912 13.2912 28.7912 12.3978ZM48.0831 9.63046H45.9807V13.7179C45.9807 14.7536 46.3512 15.2754 47.0923 15.2754C47.4306 15.2754 47.7125 15.2438 47.9381 15.1884L47.9945 16.6115C47.6159 16.746 47.1245 16.8171 46.5123 16.8171C45.7551 16.8171 45.1751 16.5878 44.7482 16.1372C44.3213 15.6865 44.1118 14.9275 44.1118 13.8681V9.62255H42.8633V8.22317H44.1118V6.68148L45.9807 6.12805V8.22317H48.0831V9.63046ZM56.4124 15.5524C57.1616 14.7222 57.5402 13.6628 57.5402 12.3662C57.5402 11.1091 57.1777 10.0813 56.4447 9.29072C55.6794 8.46849 54.6644 8.05737 53.4078 8.05737C52.1028 8.05737 51.0637 8.4764 50.2904 9.30654C49.5251 10.1367 49.1385 11.204 49.1385 12.5085C49.1385 13.7577 49.509 14.7934 50.2582 15.6077C51.0073 16.422 52.0142 16.8331 53.2709 16.8331C54.5758 16.8331 55.623 16.4062 56.4124 15.5524ZM55.0591 10.4213C55.3975 10.9747 55.5666 11.6309 55.5666 12.4057C55.5666 13.1805 55.3894 13.8446 55.043 14.4139C54.6241 15.0938 54.0522 15.4338 53.3272 15.4338C52.5862 15.4338 52.0062 15.1017 51.5954 14.4297C51.257 13.8842 51.0879 13.2201 51.0879 12.4453C51.0879 11.6467 51.249 10.9747 51.5954 10.4213C51.9901 9.74928 52.5781 9.41722 53.3434 9.41722C54.0844 9.41722 54.6564 9.74928 55.0591 10.4213ZM63.7421 9.86784C63.5569 9.83622 63.3555 9.82041 63.138 9.82041C62.4694 9.82041 61.9458 10.0655 61.5833 10.5636C61.2692 10.9984 61.1081 11.5597 61.1081 12.2239V16.6434H59.199V10.8719C59.199 9.89947 59.1829 9.01398 59.1426 8.22337H60.802L60.8745 9.83622H60.9308C61.1322 9.28279 61.4464 8.83214 61.8814 8.50009C62.3083 8.19965 62.7674 8.04944 63.2588 8.04944C63.436 8.04944 63.5971 8.06525 63.7341 8.08106L63.7421 9.86784ZM72.1928 12.8799C72.2411 12.6506 72.2653 12.366 72.2653 12.0339C72.2653 10.9824 72.0075 10.1048 71.5001 9.37746C70.8717 8.47616 69.9293 8.02551 68.6968 8.02551C67.4402 8.02551 66.4413 8.47616 65.7002 9.37746C64.9913 10.2234 64.6369 11.2828 64.6369 12.5478C64.6369 13.8365 65.0155 14.8722 65.7727 15.6391C66.5299 16.406 67.5771 16.7934 68.9062 16.7934C70.0098 16.7934 70.9684 16.6195 71.782 16.2716L71.4839 14.975C70.7912 15.2359 70.0179 15.3703 69.1721 15.3703C68.4068 15.3703 67.7865 15.1726 67.3032 14.7852C66.7716 14.3504 66.4977 13.71 66.4735 12.8799H72.1928ZM70.0743 10.1127C70.332 10.5159 70.4609 10.9982 70.4448 11.5516L66.4816 11.5437C66.538 10.9824 66.7313 10.4922 67.0454 10.089C67.4321 9.58302 67.9396 9.33002 68.5599 9.33002C69.2365 9.33002 69.744 9.59092 70.0743 10.1127Z" fill="white"/>
</svg>
