<svg width="24" height="24" viewBox="0 0 24 24" fill="none" xmlns="http://www.w3.org/2000/svg">
<path d="M16.3894 0C16.5301 1.36479 16.0143 2.70521 15.2562 3.68819C14.4669 4.65492 13.2009 5.4023 11.9661 5.30482C11.8098 3.99689 12.435 2.60773 13.1305 1.75473C13.9199 0.788005 15.2953 0.0487426 16.3894 0Z" fill="white"/>
<path d="M20.415 7.85189C20.2457 7.95887 18.0072 9.37333 18.0303 12.2345C18.0612 15.6805 20.9095 16.8443 20.9983 16.8806L21 16.8813C20.9844 16.9625 20.5467 18.5467 19.4604 20.1471C18.5461 21.5606 17.6004 22.9416 16.0843 22.966C15.3662 22.9819 14.8815 22.7669 14.3765 22.5428C13.8482 22.3085 13.2977 22.0643 12.4346 22.0643C11.5266 22.0643 10.9525 22.3158 10.399 22.5582C9.91877 22.7686 9.45415 22.9721 8.8006 22.9985C7.35481 23.0554 6.26069 21.4875 5.31506 20.0902C3.43162 17.2306 1.97019 12.0314 3.93179 8.49757C4.87742 6.75908 6.62019 5.64612 8.47237 5.61363C9.28561 5.59984 10.0689 5.92644 10.7557 6.21282C11.2833 6.43283 11.754 6.6291 12.1377 6.6291C12.4744 6.6291 12.93 6.4406 13.4612 6.22088C14.2984 5.87452 15.3232 5.45056 16.3656 5.56488C17.0768 5.58925 19.1087 5.86546 20.4217 7.84766C20.4217 7.84766 20.4178 7.85012 20.415 7.85189Z" fill="white"/>
</svg>
