<svg width="32" height="32" viewBox="0 0 32 32" fill="none" xmlns="http://www.w3.org/2000/svg">
<path d="M31.3842 11.6386C30.2192 7.52875 27.5235 4.1185 23.7936 2.03612C20.0636 -0.0463781 15.746 -0.551503 11.6362 0.613434C7.89991 1.67243 4.68153 4.04937 2.57403 7.30625C2.38653 7.596 2.46947 7.98287 2.75916 8.17031C3.04885 8.35787 3.43572 8.27493 3.62322 7.98518C3.81878 7.683 4.02516 7.3895 4.24091 7.10418L7.37478 7.33593C11.2753 7.62437 15.1012 8.85487 18.4387 10.8942C19.3477 11.4497 20.3912 11.7432 21.4564 11.7432H21.9241C22.3353 11.7432 22.7423 11.6989 23.1387 11.6135C23.5124 12.8217 23.7297 14.0821 23.7825 15.3752H1.26772C1.30185 14.5483 1.40391 13.725 1.5776 12.9164C1.6501 12.579 1.43528 12.2467 1.09791 12.1742C0.76041 12.1021 0.428222 12.3166 0.355784 12.654C-0.188341 15.1872 -0.100028 17.8524 0.611097 20.3614C1.7761 24.4713 4.47178 27.8816 8.20172 29.9639C10.618 31.3129 13.2807 32.0001 15.974 32C17.4382 32 18.9117 31.7969 20.3592 31.3866C24.469 30.2216 27.8793 27.5259 29.9617 23.7961C32.044 20.0662 32.5492 15.7486 31.3842 11.6386ZM23.1843 3.12731C24.3973 3.8045 25.4909 4.63456 26.4464 5.59093C26.5492 6.86018 26.1343 8.07543 25.2737 9.017C24.8776 9.45031 24.4149 9.79393 23.9072 10.0409C23.336 8.61593 22.5549 7.27012 21.5733 6.034C19.9207 3.95287 17.7652 2.31225 15.3475 1.26687C18.0579 1.14218 20.7562 1.77168 23.1843 3.12731ZM21.9241 10.4934H21.4564C20.6212 10.4934 19.803 10.2632 19.0903 9.82775C15.5841 7.68525 11.5648 6.39262 7.46697 6.08956L5.23385 5.92443C7.05378 3.97956 9.37941 2.55206 11.977 1.81581C12.1862 1.75656 12.3959 1.70275 12.6061 1.65287C15.7386 2.43643 18.574 4.26643 20.5947 6.81118C21.4812 7.9275 22.1899 9.141 22.7134 10.425C22.4558 10.4695 22.1923 10.4934 21.9241 10.4934ZM24.3256 11.2196C25.0275 10.8994 25.6663 10.4399 26.1962 9.86006C26.9501 9.03525 27.4427 8.01293 27.6284 6.9285C28.7842 8.41056 29.6538 10.1168 30.1818 11.9794C30.4997 13.1009 30.6816 14.2391 30.7319 15.3751H25.0328C24.979 13.9461 24.7405 12.5534 24.3256 11.2196ZM1.26878 16.6249H23.7825C23.7364 17.7552 23.5645 18.8604 23.2725 19.9277C22.8818 19.8467 22.4812 19.8046 22.0767 19.8046H21.5978C20.5096 19.8046 19.4437 20.1044 18.5151 20.6718C15.095 22.7616 11.1745 24.0225 7.17747 24.3181L3.9811 24.5544C3.01635 23.1972 2.28103 21.6701 1.81347 20.0206C1.49916 18.9119 1.31828 17.7702 1.26878 16.6249ZM4.91903 25.7382L7.26953 25.5644C11.4638 25.2542 15.5778 23.9312 19.1666 21.7382C19.8988 21.2908 20.7395 21.0543 21.5977 21.0543H22.0766C22.3525 21.0543 22.6237 21.079 22.8887 21.1248C22.3527 22.576 21.584 23.9428 20.5946 25.1888C18.571 27.7371 15.7308 29.5689 12.593 30.3506C11.2868 30.0387 10.0154 29.5453 8.81072 28.8727C7.32241 28.0417 6.01303 26.981 4.91903 25.7382ZM20.0182 30.1842C18.4745 30.6217 16.899 30.8036 15.3414 30.7357C17.7617 29.6905 19.9194 28.0489 21.5734 25.966C22.659 24.5989 23.4992 23.0978 24.0813 21.5037C24.6159 21.7585 25.1028 22.1168 25.5183 22.5713C26.4103 23.5473 26.8371 24.8094 26.721 26.1261C24.9154 28.0449 22.6188 29.4471 20.0182 30.1842ZM28.8703 23.1867C28.5753 23.7152 28.2511 24.221 27.9003 24.7027C27.7079 23.6024 27.2062 22.5656 26.4408 21.7282C25.8831 21.118 25.2075 20.6377 24.4647 20.3097C24.7943 19.1201 24.9853 17.8866 25.0328 16.6249H30.7347C30.6404 18.9011 30.0131 21.1399 28.8703 23.1867Z" fill="#1D2735"/>
<path d="M1.79675 10.7322C2.14186 10.7322 2.42162 10.4524 2.42162 10.1073C2.42162 9.76219 2.14186 9.48242 1.79675 9.48242C1.45164 9.48242 1.17188 9.76219 1.17188 10.1073C1.17188 10.4524 1.45164 10.7322 1.79675 10.7322Z" fill="#1D2735"/>
</svg>
