<svg width="32" height="32" viewBox="0 0 32 32" fill="none" xmlns="http://www.w3.org/2000/svg">
<path d="M13.8663 8.54637C14.8076 8.54637 15.6925 8.17981 16.358 7.51425C16.602 7.27019 16.602 6.87444 16.358 6.63037C16.1138 6.38631 15.7182 6.38631 15.474 6.63037C15.0446 7.05981 14.4736 7.29631 13.8662 7.29631C13.2589 7.29631 12.6878 7.05981 12.2584 6.63031C12.0143 6.38625 11.6186 6.38625 11.3745 6.63031C11.1304 6.87438 11.1304 7.27012 11.3745 7.51419C12.0401 8.17987 12.925 8.54637 13.8663 8.54637Z" fill="#1D2735"/>
<path d="M5.68261 7.29649C5.07523 7.29649 4.50423 7.05999 4.0748 6.63056C3.83073 6.38649 3.43511 6.38649 3.19086 6.63056C2.9468 6.87462 2.9468 7.27037 3.19086 7.51443C3.85636 8.17999 4.7413 8.54656 5.68255 8.54656C6.6238 8.54656 7.50867 8.18006 8.17423 7.51449C8.4183 7.27043 8.4183 6.87468 8.17423 6.63062C7.93017 6.38656 7.53455 6.38656 7.2903 6.63062C6.86098 7.05999 6.28992 7.29649 5.68261 7.29649Z" fill="#1D2735"/>
<path d="M31.6568 11.6172C28.8023 10.1754 25.6009 9.41334 22.398 9.41334C22.3973 9.41334 22.3962 9.41334 22.3954 9.41334C21.3295 9.41346 20.2636 9.49853 19.2102 9.6644V2.76078C19.2102 2.52496 19.0774 2.30921 18.867 2.2029C16.8634 1.19096 14.7201 0.518025 12.4966 0.202838C12.1553 0.154213 11.8386 0.39215 11.7901 0.7339C11.7417 1.07565 11.9794 1.39203 12.3212 1.44046C14.2828 1.71859 16.1779 2.29309 17.9602 3.14959V9.90059C16.2878 10.2702 14.6611 10.8465 13.1333 11.6171C12.9227 11.7233 12.7898 11.9392 12.7898 12.1751V13.0859C12.7484 13.0417 12.7064 12.9979 12.663 12.9552C11.8412 12.148 10.7541 11.7035 9.60188 11.7035C8.44969 11.7035 7.36263 12.148 6.54075 12.9552C5.72019 13.7611 5.25581 14.8378 5.23319 15.9868C5.22863 16.2206 5.35481 16.4373 5.56031 16.5487C5.766 16.6601 6.01644 16.6474 6.20969 16.5159C7.21181 15.8338 8.38481 15.4733 9.60181 15.4733C10.7372 15.4733 11.834 15.7873 12.7898 16.3832V20.0992C11.8028 20.679 10.7336 21.0902 9.60506 21.3225C4.7565 20.3232 1.25 16.0306 1.25 11.0694V3.14978C3.03212 2.29446 4.92619 1.72028 6.886 1.44165C7.22775 1.39309 7.46544 1.07665 7.41681 0.7349C7.36825 0.39315 7.05131 0.155588 6.71006 0.204088C4.48881 0.5199 2.34681 1.19234 0.343563 2.20271C0.132875 2.30903 0 2.52484 0 2.76078V11.0694C0 16.6685 3.98944 21.5067 9.486 22.5734C9.52531 22.581 9.56525 22.5848 9.60506 22.5848C9.64487 22.5848 9.68481 22.581 9.72412 22.5734C10.8144 22.3618 11.8564 22.0017 12.8341 21.5007C13.2831 26.6598 17.115 30.9861 22.2757 31.9877C22.3151 31.9953 22.355 31.9991 22.3948 31.9991C22.4346 31.9991 22.4746 31.9953 22.5139 31.9877C28.0106 30.9209 32 26.0828 32 20.4837V12.1751C32 11.9393 31.8673 11.7235 31.6568 11.6172ZM9.60188 14.2233C8.61444 14.2233 7.65075 14.42 6.75744 14.7993C7.24919 13.7143 8.34581 12.9534 9.60188 12.9534C10.8579 12.9534 11.9546 13.7143 12.4463 14.7993C11.553 14.42 10.5893 14.2233 9.60188 14.2233ZM30.75 20.4837C30.75 25.4449 27.2435 29.7375 22.3949 30.7367C17.5463 29.7374 14.0398 25.4449 14.0398 20.4837V12.5641C19.3035 10.0403 25.4934 10.0401 30.7499 12.5639V20.4837H30.75Z" fill="#1D2735"/>
<path d="M20.0833 17.7776C20.2054 17.8997 20.3653 17.9607 20.5253 17.9607C20.6852 17.9607 20.8451 17.8997 20.9672 17.7776C21.2113 17.5335 21.2113 17.1378 20.9672 16.8937C19.5934 15.5199 17.3578 15.5198 15.9838 16.8937C15.7398 17.1377 15.7398 17.5335 15.9838 17.7775C16.228 18.0217 16.6236 18.0217 16.8678 17.7775C17.7543 16.891 19.1969 16.8911 20.0833 17.7776Z" fill="#1D2735"/>
<path d="M24.6055 17.9608C24.7655 17.9608 24.9253 17.8998 25.0474 17.7778C25.9338 16.8913 27.3765 16.8911 28.263 17.7778C28.5071 18.0218 28.9028 18.0218 29.1469 17.7778C29.391 17.5337 29.391 17.1379 29.1469 16.8939C27.7729 15.52 25.5374 15.5201 24.1635 16.8939C23.9195 17.1379 23.9195 17.5337 24.1635 17.7778C24.2855 17.8998 24.4455 17.9608 24.6055 17.9608Z" fill="#1D2735"/>
<path d="M26.4337 21.5105C26.2281 21.3992 25.9776 21.4118 25.7843 21.5433C24.7822 22.2254 23.6092 22.5859 22.3922 22.5859C21.1752 22.5859 20.0022 22.2254 19.0001 21.5434C18.8068 21.4119 18.5564 21.3992 18.3507 21.5106C18.1452 21.622 18.0189 21.8387 18.0236 22.0725C18.0462 23.2216 18.5106 24.2982 19.3311 25.1041C20.1529 25.9113 21.2401 26.3558 22.3922 26.3558C23.5444 26.3558 24.6315 25.9113 25.4534 25.1041C26.2739 24.2982 26.7383 23.2215 26.7609 22.0725C26.7654 21.8387 26.6392 21.6218 26.4337 21.5105ZM22.3922 25.1057C21.1361 25.1057 20.0395 24.3448 19.5477 23.2598C20.4411 23.6391 21.4047 23.8358 22.3922 23.8358C23.3796 23.8358 24.3433 23.6391 25.2366 23.2598C24.7448 24.3448 23.6482 25.1057 22.3922 25.1057Z" fill="#1D2735"/>
<path d="M9.60225 1.25098C9.76663 1.25098 9.92719 1.1841 10.0441 1.06785C10.1603 0.951602 10.2266 0.790352 10.2266 0.625977C10.2266 0.460977 10.1603 0.299727 10.0441 0.184102C9.92719 0.0672266 9.76663 0.000976562 9.60225 0.000976562C9.43719 0.000976562 9.27662 0.0672266 9.15975 0.184102C9.0435 0.300352 8.97656 0.460977 8.97656 0.625977C8.97656 0.790352 9.04344 0.950977 9.15975 1.06785C9.27594 1.1841 9.43725 1.25098 9.60225 1.25098Z" fill="#1D2735"/>
</svg>
