<svg width="77" height="24" viewBox="0 0 77 24" fill="none" xmlns="http://www.w3.org/2000/svg">
<path d="M24.5745 9.4497C22.3901 9.4497 20.6608 11.1538 20.6608 13.5207C20.6608 15.7929 22.3901 17.5917 24.5745 17.5917C26.7589 17.5917 28.4882 15.8876 28.4882 13.5207C28.4882 11.0592 26.7589 9.4497 24.5745 9.4497ZM24.5745 15.8876C23.3913 15.8876 22.3901 14.8462 22.3901 13.426C22.3901 12.0059 23.3913 10.9645 24.5745 10.9645C25.7577 10.9645 26.7589 11.9112 26.7589 13.426C26.7589 14.8462 25.7577 15.8876 24.5745 15.8876ZM16.1099 9.4497C13.9255 9.4497 12.1962 11.1538 12.1962 13.5207C12.1962 15.7929 13.9255 17.5917 16.1099 17.5917C18.2943 17.5917 20.0236 15.8876 20.0236 13.5207C20.0236 11.0592 18.2943 9.4497 16.1099 9.4497ZM16.1099 15.8876C14.9267 15.8876 13.9255 14.8462 13.9255 13.426C13.9255 12.0059 14.9267 10.9645 16.1099 10.9645C17.2931 10.9645 18.2943 11.9112 18.2943 13.426C18.2943 14.8462 17.2931 15.8876 16.1099 15.8876ZM6.00709 10.6805V12.3846H9.9208C9.82979 13.3314 9.46572 14.0888 9.01064 14.5621C8.46454 15.1302 7.55438 15.7929 6.00709 15.7929C3.54965 15.7929 1.72932 13.8047 1.72932 11.2485C1.72932 8.69231 3.64066 6.70414 6.00709 6.70414C7.28133 6.70414 8.28251 7.27219 9.01064 7.93491L10.1939 6.70414C9.19267 5.7574 7.91844 5 6.09811 5C2.82151 5 0 7.84024 0 11.2485C0 14.6568 2.82151 17.497 6.09811 17.497C7.91844 17.497 9.19267 16.929 10.2849 15.6982C11.3771 14.5621 11.7411 12.9527 11.7411 11.7219C11.7411 11.3432 11.7411 10.9645 11.6501 10.6805H6.00709ZM47.3286 12.0059C46.9645 11.0592 46.0544 9.4497 44.052 9.4497C42.0496 9.4497 40.4114 11.0592 40.4114 13.5207C40.4114 15.7929 42.0496 17.5917 44.234 17.5917C45.9634 17.5917 47.0556 16.4556 47.4196 15.7929L46.1454 14.8462C45.6903 15.5089 45.1442 15.9822 44.234 15.9822C43.3239 15.9822 42.7778 15.6035 42.3227 14.7515L47.5106 12.4793L47.3286 12.0059ZM42.0496 13.3314C42.0496 11.8166 43.2329 10.9645 44.052 10.9645C44.6891 10.9645 45.3262 11.3432 45.5083 11.8166L42.0496 13.3314ZM37.7719 17.213H39.5012V5.3787H37.7719V17.213ZM35.0414 10.3018C34.5863 9.8284 33.8582 9.35503 32.948 9.35503C31.0366 9.35503 29.2163 11.1538 29.2163 13.426C29.2163 15.6982 30.9456 17.4024 32.948 17.4024C33.8582 17.4024 34.5863 16.929 34.9504 16.4556H35.0414V17.0237C35.0414 18.5385 34.2222 19.3905 32.948 19.3905C31.9468 19.3905 31.2187 18.6331 31.0366 17.9704L29.5804 18.6331C30.0355 19.6746 31.1277 21 33.039 21C35.0414 21 36.6797 19.7692 36.6797 16.8343V9.63905H35.0414V10.3018ZM33.039 15.8876C31.8558 15.8876 30.8546 14.8462 30.8546 13.426C30.8546 12.0059 31.8558 10.9645 33.039 10.9645C34.2222 10.9645 35.1324 12.0059 35.1324 13.426C35.1324 14.8462 34.2222 15.8876 33.039 15.8876ZM55.2471 5.3787H51.1513V17.213H52.8806V12.7633H55.2471C57.1584 12.7633 58.9787 11.3432 58.9787 9.07101C58.9787 6.79882 57.1584 5.3787 55.2471 5.3787ZM55.3381 11.0592H52.8806V6.98817H55.3381C56.6123 6.98817 57.3404 8.12426 57.3404 8.97633C57.2494 10.0178 56.5213 11.0592 55.3381 11.0592ZM65.805 9.35503C64.5307 9.35503 63.2565 9.92308 62.8014 11.1538L64.3487 11.8166C64.7128 11.1538 65.2589 10.9645 65.896 10.9645C66.8061 10.9645 67.6253 11.5325 67.7163 12.4793V12.574C67.4433 12.3846 66.7151 12.1006 65.987 12.1006C64.3487 12.1006 62.7104 13.0473 62.7104 14.7515C62.7104 16.3609 64.0757 17.4024 65.5319 17.4024C66.7151 17.4024 67.2612 16.8343 67.7163 16.2663H67.8073V17.213H69.4456V12.6686C69.2636 10.5858 67.7163 9.35503 65.805 9.35503ZM65.6229 15.8876C65.0768 15.8876 64.2577 15.6035 64.2577 14.8462C64.2577 13.8994 65.2589 13.6154 66.078 13.6154C66.8061 13.6154 67.1702 13.8047 67.6253 13.9941C67.4433 15.1302 66.5331 15.8876 65.6229 15.8876ZM75.1797 9.63905L73.2683 14.7515H73.1773L71.1749 9.63905H69.3546L72.3582 16.8343L70.6288 20.8106H72.3582L77 9.63905H75.1797ZM59.8889 17.213H61.6182V5.3787H59.8889V17.213Z" fill="white"/>
</svg>
