<svg width="18" height="24" viewBox="0 0 18 24" fill="none" xmlns="http://www.w3.org/2000/svg">
<path fill-rule="evenodd" clip-rule="evenodd" d="M8.25 5.90625C5.29873 5.90625 2.90625 8.29873 2.90625 11.25C2.90625 14.2013 5.29873 16.5938 8.25 16.5938C11.2013 16.5938 13.5938 14.2013 13.5938 11.25C13.5938 8.29873 11.2013 5.90625 8.25 5.90625ZM1.59375 11.25C1.59375 7.57385 4.57385 4.59375 8.25 4.59375C11.9261 4.59375 14.9062 7.57385 14.9062 11.25C14.9062 14.9261 11.9261 17.9062 8.25 17.9062C4.57385 17.9062 1.59375 14.9261 1.59375 11.25Z" fill="#4E5562"/>
<path fill-rule="evenodd" clip-rule="evenodd" d="M12.0235 15.0235C12.2797 14.7672 12.6953 14.7672 12.9515 15.0235L16.214 18.286C16.4703 18.5422 16.4703 18.9578 16.214 19.214C15.9578 19.4703 15.5422 19.4703 15.286 19.214L12.0235 15.9515C11.7672 15.6953 11.7672 15.2797 12.0235 15.0235Z" fill="#4E5562"/>
</svg>
