<svg width="18" height="18" viewBox="0 0 18 18" fill="none" xmlns="http://www.w3.org/2000/svg">
<path fill-rule="evenodd" clip-rule="evenodd" d="M9 1.40625C7.38384 1.40625 5.83387 2.04827 4.69107 3.19107C3.54827 4.33387 2.90625 5.88384 2.90625 7.5C2.90625 9.86123 4.44002 12.1387 6.10141 13.8924C6.91868 14.7551 7.73819 15.461 8.35411 15.9515C8.61073 16.1558 8.83108 16.322 9 16.4458C9.16892 16.322 9.38927 16.1558 9.64589 15.9515C10.2618 15.461 11.0813 14.7551 11.8986 13.8924C13.56 12.1387 15.0938 9.86123 15.0938 7.5C15.0938 5.88384 14.4517 4.33387 13.3089 3.19107C12.1661 2.04827 10.6162 1.40625 9 1.40625ZM9 17.25C8.63598 17.796 8.63561 17.7958 8.63561 17.7958L8.63359 17.7944L8.62876 17.7912L8.61191 17.7798C8.59754 17.77 8.57695 17.756 8.55055 17.7377C8.49775 17.7011 8.42171 17.6477 8.32573 17.5784C8.13384 17.4398 7.86189 17.2373 7.53652 16.9782C6.88681 16.4609 6.01882 15.7137 5.14859 14.7951C3.43498 12.9863 1.59375 10.3888 1.59375 7.5C1.59375 5.53574 2.37405 3.65193 3.76299 2.26299C5.15193 0.874049 7.03574 0.09375 9 0.09375C10.9643 0.09375 12.8481 0.874049 14.237 2.26299C15.6259 3.65193 16.4062 5.53574 16.4062 7.5C16.4062 10.3888 14.565 12.9863 12.8514 14.7951C11.9812 15.7137 11.1132 16.4609 10.4635 16.9782C10.1381 17.2373 9.86616 17.4398 9.67427 17.5784C9.57829 17.6477 9.50225 17.7011 9.44945 17.7377C9.42305 17.756 9.40246 17.77 9.38809 17.7798L9.37124 17.7912L9.36641 17.7944L9.36491 17.7954C9.36491 17.7954 9.36402 17.796 9 17.25ZM9 17.25L9.36402 17.796C9.14359 17.943 8.85605 17.9427 8.63561 17.7958L9 17.25Z" fill="#4E5562"/>
<path fill-rule="evenodd" clip-rule="evenodd" d="M9 5.90625C8.1198 5.90625 7.40625 6.6198 7.40625 7.5C7.40625 8.3802 8.1198 9.09375 9 9.09375C9.8802 9.09375 10.5938 8.3802 10.5938 7.5C10.5938 6.6198 9.8802 5.90625 9 5.90625ZM6.09375 7.5C6.09375 5.89492 7.39492 4.59375 9 4.59375C10.6051 4.59375 11.9062 5.89492 11.9062 7.5C11.9062 9.10508 10.6051 10.4062 9 10.4062C7.39492 10.4062 6.09375 9.10508 6.09375 7.5Z" fill="#4E5562"/>
</svg>
