<svg width="34" height="34" viewBox="0 0 34 34" fill="none" xmlns="http://www.w3.org/2000/svg">
<g clip-path="url(#clip0_5407_1594)">
<path d="M34 16.8937V27.625C34 31.1312 31.1312 34 27.625 34H17C16.6812 34 16.4687 34 16.15 34C7.225 33.575 0 26.1375 0 17C0 7.65 7.65 0 17 0C26.35 0 34 7.54375 34 16.8937Z" fill="#D85151"/>
<path fill-rule="evenodd" clip-rule="evenodd" d="M17 13.2576C13.8995 13.2576 11.3452 15.8119 11.3452 18.9124C11.3452 22.0129 13.8995 24.5672 17 24.5672C20.1006 24.5672 22.6549 22.0129 22.6549 18.9124C22.6549 15.8119 20.1006 13.2576 17 13.2576ZM7.56738 18.9124C7.56738 13.7254 11.8131 9.47974 17 9.47974C22.187 9.47974 26.4327 13.7254 26.4327 18.9124C26.4327 20.8268 25.8544 22.613 24.8638 24.1048L27.2607 26.5017C27.9984 27.2394 27.9984 28.4354 27.2607 29.1731C26.523 29.9107 25.327 29.9107 24.5894 29.1731L22.1925 26.7761C20.7006 27.7667 18.9145 28.3451 17 28.3451C11.8131 28.3451 7.56738 24.0994 7.56738 18.9124Z" fill="black" fill-opacity="0.05"/>
<path fill-rule="evenodd" clip-rule="evenodd" d="M16.8937 10.1527C13.1707 10.1527 10.1527 13.1707 10.1527 16.8937C10.1527 20.6166 13.1707 23.6347 16.8937 23.6347C20.6166 23.6347 23.6347 20.6166 23.6347 16.8937C23.6347 13.1707 20.6166 10.1527 16.8937 10.1527ZM6.84717 16.8937C6.84717 11.3451 11.3451 6.84717 16.8937 6.84717C22.4422 6.84717 26.9402 11.3451 26.9402 16.8937C26.9402 22.4422 22.4422 26.9402 16.8937 26.9402C11.3451 26.9402 6.84717 22.4422 6.84717 16.8937Z" fill="white"/>
<path fill-rule="evenodd" clip-rule="evenodd" d="M22.5251 22.5251C23.1705 21.8797 24.217 21.8797 24.8625 22.5251L28.05 25.7126C28.6954 26.358 28.6954 27.4045 28.05 28.05C27.4045 28.6954 26.358 28.6954 25.7126 28.05L22.5251 24.8625C21.8797 24.217 21.8797 23.1705 22.5251 22.5251Z" fill="white"/>
<path d="M23.1624 14.6625C25.2749 14.6625 26.9874 12.9499 26.9874 10.8375C26.9874 8.72496 25.2749 7.01245 23.1624 7.01245C21.0499 7.01245 19.3374 8.72496 19.3374 10.8375C19.3374 12.9499 21.0499 14.6625 23.1624 14.6625Z" fill="white"/>
<path fill-rule="evenodd" clip-rule="evenodd" d="M23.1626 8.42907C21.8325 8.42907 20.7543 9.50731 20.7543 10.8374C20.7543 12.1675 21.8325 13.2457 23.1626 13.2457C24.4927 13.2457 25.5709 12.1675 25.5709 10.8374C25.5709 9.50731 24.4927 8.42907 23.1626 8.42907ZM17.9209 10.8374C17.9209 7.94249 20.2677 5.5957 23.1626 5.5957C26.0575 5.5957 28.4043 7.94248 28.4043 10.8374C28.4043 13.7323 26.0575 16.0791 23.1626 16.0791C20.2677 16.0791 17.9209 13.7323 17.9209 10.8374Z" fill="#D85151"/>
</g>
<defs>
<clipPath id="clip0_5407_1594">
<rect width="34" height="34" fill="white"/>
</clipPath>
</defs>
</svg>
