<svg width="32" height="32" viewBox="0 0 32 32" fill="none" xmlns="http://www.w3.org/2000/svg">
<path d="M29.2064 4.89832C29.0694 4.58147 28.7014 4.43571 28.3845 4.57279C28.0678 4.70986 27.922 5.07784 28.0591 5.39462C29.0059 7.58336 28.7388 10.1023 27.4087 12.0341C27.3995 12.0245 27.3907 12.0147 27.3813 12.0053L17.8658 2.48994C17.8564 2.4805 17.8465 2.47169 17.837 2.4625C19.7686 1.13298 22.2895 0.8662 24.4764 1.81211C24.793 1.94919 25.1611 1.80343 25.2981 1.48658C25.4352 1.16973 25.2895 0.801756 24.9726 0.664741C22.1454 -0.558265 18.8446 -0.0655872 16.5012 1.91113C16.4896 1.91094 16.478 1.91025 16.4663 1.91025C15.9377 1.91025 15.4407 2.11608 15.0669 2.48987C14.5647 2.99212 14.3897 3.69925 14.5412 4.34464C13.811 5.7326 13.5007 7.30077 13.6412 8.86018C13.6236 8.87687 13.6065 8.89437 13.5906 8.91344L3.40198 21.0855C2.8553 21.7386 2.57495 22.5669 2.61258 23.4178C2.64721 24.2003 2.94868 24.9396 3.46524 25.5218L3.19215 25.7949C1.77449 27.2125 1.77449 29.5192 3.19215 30.9368C3.90097 31.6456 4.83201 32 5.76311 32C6.69421 32 7.62518 31.6456 8.33401 30.9368L11.2528 28.018C11.8548 27.4161 12.8343 27.4159 13.4364 28.018L14.4215 29.0032C14.6657 29.2472 15.0614 29.2472 15.3056 29.0032C15.5497 28.7591 15.5497 28.3633 15.3056 28.1191L14.3204 27.134C13.231 26.0447 11.4584 26.0445 10.3689 27.134L7.45004 30.0528C6.51988 30.9829 5.00634 30.9829 4.07618 30.0528C3.14595 29.1226 3.14595 27.609 4.07618 26.6788L4.34921 26.4058C4.93152 26.9224 5.67079 27.2238 6.45325 27.2585C6.50394 27.2607 6.55444 27.2618 6.60489 27.2618C7.4021 27.2618 8.17137 26.9833 8.78562 26.4691L20.9577 16.2805C20.9769 16.2644 20.9946 16.2472 21.0114 16.2294C21.2553 16.2513 21.4995 16.2628 21.7432 16.2628C23.0567 16.2628 24.3562 15.9454 25.5264 15.3298C25.6761 15.3649 25.829 15.3828 25.9819 15.3828C26.4886 15.3828 26.9955 15.1899 27.3813 14.8041C27.7756 14.4098 27.9679 13.8891 27.9592 13.3712C29.9376 11.0267 30.4308 7.72862 29.2064 4.89832ZM7.98316 25.5105C7.12325 26.2303 5.87693 26.1752 5.08385 25.3823L4.78694 25.0854C4.78675 25.0852 4.78657 25.0849 4.78638 25.0847C4.78619 25.0846 4.78594 25.0844 4.78575 25.0842L4.48891 24.7873C3.69589 23.9943 3.64076 22.7479 4.36052 21.888L14.1108 10.2396L19.6315 15.7603L7.98316 25.5105ZM20.5479 14.9088L14.9624 9.32317C14.7398 8.05291 14.8773 6.75452 15.3503 5.57196L24.2996 14.5212C23.1169 14.9942 21.8175 15.1311 20.5479 14.9088ZM26.4973 13.9202C26.2131 14.2044 25.7508 14.2044 25.4665 13.9202L15.951 4.40464C15.6668 4.12049 15.6668 3.65806 15.951 3.37384C16.0887 3.23614 16.2717 3.16032 16.4664 3.16032C16.661 3.16032 16.8441 3.23614 16.9818 3.37384L26.4972 12.8893C26.7815 13.1736 26.7815 13.6359 26.4973 13.9202Z" fill="#333D4C"/>
<path d="M15.2984 14.5716C14.8891 14.1624 14.345 13.937 13.7663 13.937C13.1875 13.937 12.6433 14.1624 12.2341 14.5716L10.2128 16.593C9.80352 17.0022 9.57812 17.5463 9.57812 18.1251C9.57812 18.704 9.80352 19.2481 10.2128 19.6573C10.6352 20.0797 11.19 20.2909 11.7449 20.2909C12.2997 20.2909 12.8546 20.0797 13.277 19.6573L15.2984 17.6359C16.1433 16.7911 16.1433 15.4165 15.2984 14.5716ZM11.0968 18.7733C10.9236 18.6001 10.8283 18.37 10.8283 18.1251C10.8283 17.8803 10.9236 17.6501 11.0968 17.477L11.6655 16.9083L12.9617 18.2046L12.3931 18.7733C12.0357 19.1306 11.4541 19.1308 11.0968 18.7733ZM14.4145 16.7519L13.8458 17.3206L12.5495 16.0243L13.1182 15.4556C13.2913 15.2825 13.5215 15.1871 13.7663 15.1871C14.0112 15.1871 14.2414 15.2825 14.4145 15.4556C14.7718 15.813 14.7718 16.3945 14.4145 16.7519Z" fill="#333D4C"/>
<path d="M27.0431 3.45453C27.2031 3.45453 27.363 3.39353 27.4851 3.27145L27.4931 3.26339C27.7372 3.0193 27.7372 2.62351 27.4931 2.37936C27.249 2.13527 26.8533 2.13527 26.6091 2.37936L26.601 2.38742C26.3569 2.63151 26.3569 3.0273 26.601 3.27145C26.7231 3.39353 26.8831 3.45453 27.0431 3.45453Z" fill="#333D4C"/>
</svg>
