<svg width="28" height="32" viewBox="0 0 28 32" fill="none" xmlns="http://www.w3.org/2000/svg">
<path d="M14.625 5.7665V3.75H17.75C18.0951 3.75 18.375 3.47019 18.375 3.125V0.625C18.375 0.279813 18.0951 0 17.75 0H10.25C9.90488 0 9.625 0.279813 9.625 0.625V3.125C9.625 3.47019 9.90488 3.75 10.25 3.75H13.375V5.76675C6.36287 6.09937 0.875 11.8828 0.875 18.875C0.875 26.1312 6.75594 31.9783 13.9557 31.9994C13.9563 31.9994 13.9569 31.9994 13.9576 31.9994C13.9582 31.9994 13.9588 31.9993 13.9594 31.9993C13.9728 31.9996 13.9862 32 14 32C21.2869 32 27.125 26.0822 27.125 18.875C27.125 11.804 21.5499 6.09712 14.625 5.7665ZM23.3106 17.033C25.1849 17.6918 25.875 18.4155 25.875 18.875C25.875 19.3345 25.1848 20.0582 23.3106 20.717C23.3531 20.1071 23.375 19.4907 23.375 18.875C23.375 18.2593 23.3531 17.6429 23.3106 17.033ZM24.5214 13.3667C25.0815 14.4341 25.4743 15.5868 25.6873 16.7763C25.0535 16.3652 24.2145 15.9956 23.1796 15.6741C23.0377 14.5257 22.8206 13.4147 22.5308 12.3544C23.245 12.6554 23.9109 12.994 24.5214 13.3667ZM23.0898 11.2334C22.7523 11.0894 22.4049 10.9539 22.0487 10.8263C21.9211 10.4702 21.7856 10.1227 21.6416 9.78525C22.1653 10.2255 22.6495 10.7097 23.0898 11.2334ZM18.2964 18.2854C18.2877 17.4903 18.2607 16.7176 18.2167 15.9722C19.6028 16.1237 20.8928 16.3504 22.0259 16.6449C22.0914 17.3796 22.125 18.1277 22.125 18.875C22.125 19.6221 22.0914 20.37 22.0259 21.1045C20.9021 21.3961 19.6001 21.6261 18.2051 21.7789C18.2814 20.5719 18.3086 19.3808 18.2964 18.2854ZM21.8708 15.3184C20.6143 15.0209 19.3242 14.829 18.1231 14.7063C18.0024 13.3534 17.8221 12.1101 17.5886 11.0109C18.8005 11.1892 19.9698 11.4575 21.0653 11.8112C21.4227 12.9175 21.6925 14.0927 21.8708 15.3184ZM19.5083 8.35356C19.8813 8.96456 20.2201 9.63094 20.5212 10.3456C19.4804 10.0617 18.3886 9.8475 17.2674 9.70562C16.9776 8.68781 16.633 7.84338 16.2408 7.2135C17.38 7.43163 18.4833 7.81587 19.5083 8.35356ZM14 22C12.9801 22 11.9699 21.9623 10.9889 21.8885C10.9715 21.6814 10.9583 21.4956 10.949 21.3373C10.9289 20.9928 10.6344 20.7295 10.2887 20.7498C9.94406 20.7699 9.681 21.0656 9.70113 21.4101C9.70781 21.5243 9.71594 21.6453 9.72525 21.7711C8.3565 21.6183 7.07894 21.3912 5.97419 21.1045C5.90862 20.3701 5.875 19.6221 5.875 18.875C5.875 18.1277 5.90862 17.3796 5.97412 16.645C7.09175 16.3544 8.36175 16.1299 9.72619 15.9784C9.71663 16.1037 9.70819 16.2242 9.70119 16.3379C9.68006 16.6824 9.94219 16.9789 10.2867 17.0001C10.631 17.022 10.9277 16.7591 10.9489 16.4146C10.9594 16.2437 10.9729 16.0584 10.9896 15.8614C11.9632 15.788 12.9729 15.75 14 15.75C15.0081 15.75 15.9995 15.7866 16.9564 15.8573C17.0064 16.6423 17.0372 17.4585 17.0465 18.2993C17.0602 19.5418 17.0268 20.7489 16.9513 21.8929C15.9887 21.9636 14.9989 22 14 22ZM16.8484 23.1534C16.7126 24.5415 16.5111 25.8096 16.2526 26.8989C14.7855 27.0308 13.2652 27.0322 11.7963 26.903C11.4749 25.6306 11.2567 24.2706 11.12 23.1511C12.0614 23.2164 13.0266 23.25 14 23.25C14.9622 23.25 15.9167 23.2173 16.8484 23.1534ZM11.1214 14.6C11.2649 13.434 11.4884 12.0866 11.8007 10.8477C12.5257 10.7836 13.2607 10.75 14 10.75C14.7656 10.75 15.5265 10.7858 16.2764 10.8544C16.5285 11.9391 16.7251 13.2057 16.8572 14.5985C15.7264 14.5207 14.7313 14.5 14 14.5C13.2641 14.5 12.2611 14.5209 11.1214 14.6ZM10.875 2.5V1.25H17.125V2.5H10.875ZM13.9511 7.00256C13.959 7.00194 13.9669 7.00119 13.9748 7.00025C13.9772 7 13.9799 6.99969 13.9824 6.99937C13.9833 6.99937 13.9841 6.99931 13.985 6.99925C13.99 6.99937 13.9949 7 14 7C14.0627 7 14.1253 7.00194 14.1879 7.00294C14.3964 7.03787 14.7146 7.18806 15.0903 7.73694C15.3993 8.18844 15.679 8.81094 15.9244 9.57125C15.2879 9.5245 14.6454 9.5 14 9.5C13.3882 9.5 12.779 9.52244 12.175 9.5645C12.7089 7.986 13.3482 7.04894 13.9511 7.00256ZM8.49169 8.3535C9.55188 7.79744 10.696 7.40613 11.8761 7.19231C11.4829 7.81838 11.1323 8.65087 10.8214 9.69431C9.66906 9.836 8.54706 10.0543 7.47881 10.3456C7.77994 9.63094 8.11869 8.96456 8.49169 8.3535ZM10.4779 11.0011C10.1878 12.2552 9.98106 13.5784 9.84975 14.709C8.65637 14.8318 7.37625 15.0232 6.12919 15.3184C6.3075 14.0927 6.57737 12.9175 6.93475 11.8112C8.05031 11.451 9.24238 11.1793 10.4779 11.0011ZM6.35844 9.78531C6.21444 10.1228 6.07894 10.4703 5.95131 10.8264C5.59519 10.954 5.24769 11.0895 4.91025 11.2335C5.35044 10.7097 5.83469 10.2255 6.35844 9.78531ZM3.47862 13.3667C4.08912 12.994 4.755 12.6555 5.46925 12.3544C5.17944 13.4148 4.96225 14.5257 4.82044 15.6741C3.78556 15.9956 2.9465 16.3653 2.31281 16.7763C2.52569 15.5868 2.91856 14.4342 3.47862 13.3667ZM4.68944 17.033C4.64687 17.6429 4.625 18.2593 4.625 18.875C4.625 19.4907 4.64687 20.1071 4.68944 20.717C2.81506 20.0582 2.125 19.3345 2.125 18.875C2.125 18.4155 2.81512 17.6918 4.68944 17.033ZM3.47856 24.3833C2.9185 23.3159 2.52569 22.1632 2.31275 20.9737C2.94644 21.3847 3.7855 21.7544 4.82044 22.0759C4.96225 23.2243 5.17944 24.3352 5.46925 25.3956C4.755 25.0946 4.08912 24.756 3.47856 24.3833ZM4.91025 26.5166C5.24769 26.6606 5.59513 26.7961 5.95131 26.9237C6.07888 27.2798 6.21444 27.6273 6.35844 27.9648C5.83469 27.5245 5.3505 27.0403 4.91025 26.5166ZM6.12906 22.4306C7.24969 22.6946 8.51169 22.902 9.84625 23.0412C9.97575 24.1705 10.1817 25.4925 10.4734 26.7502C9.238 26.5723 8.05219 26.3009 6.93513 25.9399C6.57744 24.8331 6.30744 23.6571 6.12906 22.4306ZM8.49169 29.3964C8.11894 28.7858 7.78044 28.1199 7.47944 27.4058C8.54663 27.6976 9.66394 27.9157 10.8177 28.057C11.1294 29.0994 11.4808 29.9316 11.8752 30.5575C10.6955 30.3437 9.55169 29.9524 8.49169 29.3964ZM15.3421 29.5217C15.0466 30.0821 14.5739 30.75 14 30.75H13.9847C13.3683 30.7232 12.7149 29.7843 12.172 28.1866C12.7774 28.2284 13.3891 28.25 14 28.25C14.6332 28.25 15.2672 28.2267 15.8941 28.1817C15.7257 28.6933 15.5414 29.1439 15.3421 29.5217ZM19.5083 29.3964C18.4688 29.9418 17.3488 30.3296 16.1924 30.5461C16.2799 30.4086 16.3651 30.2616 16.4478 30.1049C16.7554 29.5216 17.0181 28.8241 17.2407 28.0496C18.3749 27.9076 19.4726 27.6922 20.5206 27.4058C20.2196 28.1199 19.8811 28.7858 19.5083 29.3964ZM17.5646 26.7447C17.8119 25.5877 17.9888 24.3236 18.1069 23.0461C19.4587 22.9069 20.7371 22.6977 21.871 22.4305C21.6926 23.6569 21.4226 24.8329 21.0649 25.9399C19.9608 26.2967 18.7878 26.5663 17.5646 26.7447ZM21.6416 27.9647C21.7856 27.6272 21.9211 27.2798 22.0487 26.9237C22.4049 26.7961 22.7524 26.6606 23.0898 26.5166C22.6496 27.0403 22.1653 27.5245 21.6416 27.9647ZM24.5214 24.3833C23.9109 24.756 23.245 25.0945 22.5308 25.3956C22.8206 24.3352 23.0377 23.2242 23.1796 22.0759C24.2144 21.7544 25.0535 21.3847 25.6872 20.9737C25.4743 22.1632 25.0814 23.3158 24.5214 24.3833Z" fill="#1D2735"/>
</svg>
