<svg width="30" height="32" viewBox="0 0 30 32" fill="none" xmlns="http://www.w3.org/2000/svg">
<path d="M14.603 10.9032H15.5056C15.8507 10.9032 16.1306 10.6234 16.1306 10.2782C16.1306 9.93301 15.8507 9.6532 15.5056 9.6532H15.1565L15.4753 8.76714C15.5921 8.44232 15.4236 8.08432 15.0988 7.96745C14.7739 7.8507 14.4159 8.0192 14.2991 8.34395L13.7929 9.75082C13.6981 10.0143 13.7377 10.3083 13.8987 10.5373C14.0598 10.7664 14.323 10.9032 14.603 10.9032Z" fill="#1D2735"/>
<path d="M1.19531 32H28.8039C29.1491 32 29.4289 31.7202 29.4289 31.375V28.4687C29.4289 28.1235 29.1491 27.8437 28.8039 27.8437H27.8499V27.0775C27.8499 26.5466 27.6266 26.0672 27.2692 25.7272V23.165C27.2692 22.9083 27.2549 22.6423 27.2264 22.3746C27.1899 22.0313 26.8821 21.7827 26.5388 21.8191C26.1956 21.8556 25.9469 22.1634 25.9833 22.5066C26.0071 22.7306 26.0192 22.9521 26.0192 23.165V25.2128C26.0077 25.2126 25.9963 25.2125 25.9848 25.2125H24.1392C24.0421 25.2125 23.9467 25.22 23.8536 25.2344V23.2069C23.8536 22.8617 23.5737 22.5819 23.2286 22.5819C22.8834 22.5819 22.6036 22.8617 22.6036 23.2069V26.0209C22.3961 26.3214 22.2742 26.6854 22.2742 27.0775V27.8431H15.625V25.9908C16.3651 25.7318 16.8974 25.0269 16.8974 24.1996V23.2977C16.8974 22.2514 16.0463 21.4002 15 21.4002C13.9538 21.4002 13.1026 22.2514 13.1026 23.2977V24.1996C13.1026 25.0269 13.635 25.7318 14.375 25.9908V27.8431H7.68494V27.0775C7.68494 26.6832 7.56162 26.3174 7.352 26.0158V23.2069C7.352 22.8617 7.07212 22.5819 6.727 22.5819C6.38187 22.5819 6.102 22.8617 6.102 23.2069V25.2339C6.01 25.2199 5.91581 25.2126 5.81994 25.2126H3.98431V23.1651C3.98431 20.7277 5.34637 19.1789 8.40087 18.1438L9.7115 17.7342L11.4919 21.3618C11.6704 21.7253 12.1616 21.8237 12.4662 21.5554L15.0006 19.3223L17.4842 21.5056C17.7897 21.7742 18.2824 21.6741 18.4593 21.3088L20.205 17.7076L21.6029 18.1437C22.1834 18.3418 22.6822 18.5475 23.1276 18.7724C23.4357 18.9279 23.8116 18.8043 23.9672 18.4963C24.1228 18.1881 23.9992 17.8122 23.6911 17.6566C23.1914 17.4043 22.6377 17.1758 21.9984 16.958C21.9933 16.9563 21.9882 16.9546 21.983 16.9529L20.0636 16.3541C20.0634 16.354 20.0633 16.3539 20.0631 16.3539L20.0283 16.3431L18.3011 15.8042L18.0069 13.9362C19.6802 12.9054 20.7981 11.0566 20.7981 8.95144V7.32194H20.8596C21.2047 7.32194 21.4846 7.04213 21.4846 6.69694V6.44081C21.4846 2.88925 18.5953 0 15.0439 0H14.7875C11.2362 0 8.34694 2.88925 8.34694 6.44056V6.69669C8.34694 7.04188 8.62681 7.32169 8.97194 7.32169H9.09556V8.95119C9.09556 11.0861 10.2453 12.9573 11.9581 13.9791L11.6912 15.8059L8.02106 16.9528C8.01644 16.9542 8.01181 16.9557 8.00712 16.9573C6.38406 17.5065 5.18044 18.1953 4.32769 19.0631C3.27037 20.139 2.73431 21.5191 2.73431 23.1649V25.6861C2.35119 26.0278 2.10931 26.5248 2.10931 27.0774V27.8436H1.19531C0.850187 27.8436 0.570312 28.1234 0.570312 28.4686V31.375C0.570312 31.7202 0.850125 32 1.19531 32ZM14.3525 23.2977C14.3525 22.9407 14.6429 22.6502 14.9999 22.6502C15.3569 22.6502 15.6474 22.9407 15.6474 23.2977V24.1996C15.6474 24.5566 15.3569 24.8471 14.9999 24.8471C14.6429 24.8471 14.3525 24.5566 14.3525 24.1996V23.2977ZM12.2536 20.0766L10.9201 17.3598L12.1223 16.9816L14.0293 18.5119L12.2536 20.0766ZM17.6927 20.0244L15.9723 18.5121L17.8328 17.0175L17.8764 16.9826L18.9981 17.3316L17.6927 20.0244ZM14.7875 1.25H15.0439C17.7821 1.25 20.0317 3.38113 20.2216 6.07169H16.1663C15.6457 6.07169 15.1285 5.91575 14.6921 5.63269C14.2297 5.33281 13.9356 4.897 13.6296 4.45075C13.5473 4.33069 13.4717 4.19694 13.3749 4.08763C13.1065 3.78306 12.6071 3.81963 12.3844 4.15881C12.2337 4.38831 12.0837 4.61831 11.9322 4.84731C11.6104 5.33344 11.1418 5.70956 10.5929 5.90875C10.2766 6.02356 9.94575 6.07175 9.60988 6.07175C9.79981 3.38113 12.0495 1.25 14.7875 1.25ZM10.3456 8.95125V7.2635C11.3814 7.08481 12.3182 6.48587 12.9174 5.62244C13.6504 6.67762 14.8814 7.32188 16.1662 7.32188H19.548V8.95125C19.548 11.4067 17.6141 13.419 15.1891 13.5454C14.9515 13.5576 14.7124 13.5528 14.4757 13.5279C12.1591 13.2913 10.3456 11.3291 10.3456 8.95125ZM13.9218 14.7119C14.889 14.8824 15.8991 14.8101 16.8292 14.493L17.0707 16.0261L15.0011 17.6871C14.3464 17.1621 13.3869 16.3924 12.9232 16.0203L13.1425 14.5188C13.3973 14.6016 13.6581 14.6651 13.9218 14.7119ZM3.35931 27.0775C3.35931 26.7434 3.63969 26.4628 3.97406 26.4628H5.82006C6.15906 26.4628 6.43481 26.7386 6.43481 27.0775V27.8434H3.35931V27.0775ZM26.0589 26.4676C26.363 26.5041 26.6 26.7715 26.6 27.0775V27.8434H23.5245V27.0775C23.5245 26.7386 23.8002 26.4628 24.1392 26.4628H25.9852C26.0095 26.4627 26.0348 26.4647 26.0589 26.4676ZM1.82031 29.0937H28.1789V30.75H1.82031V29.0937Z" fill="#1D2735"/>
<path d="M25.0037 20.1375C25.2204 20.6578 25.991 20.6336 26.1721 20.0995C26.3549 19.5601 25.7485 19.0712 25.2597 19.3624C24.9974 19.5188 24.8862 19.8558 25.0037 20.1375Z" fill="#1D2735"/>
</svg>
