<svg width="161" height="86" viewBox="0 0 161 86" fill="none" xmlns="http://www.w3.org/2000/svg">
<g opacity="0.3">
<mask id="path-1-inside-1_821_11017" fill="white">
<path fill-rule="evenodd" clip-rule="evenodd" d="M60.6315 4.0659C60.4029 7.69848 57.2729 10.458 53.6403 10.2294C50.0077 10.0008 47.2482 6.87077 47.4768 3.23819C47.4884 3.05362 47.5075 2.8713 47.5338 2.69151L12.742 0.502375C8.33247 0.224921 4.53289 3.57465 4.25544 7.9842L0.500855 67.6555C0.223401 72.065 3.57313 75.8646 7.98269 76.1421L42.7541 78.3299C42.7541 78.3299 42.7541 78.3298 42.7541 78.3297C42.9827 74.6972 46.1128 71.9377 49.7453 72.1662C53.3779 72.3948 56.1374 75.5249 55.9088 79.1575C55.9088 79.1575 55.9088 79.1576 55.9088 79.1576L147.679 84.9319C152.088 85.2093 155.888 81.8596 156.165 77.45L159.92 17.7788C160.197 13.3692 156.847 9.56965 152.438 9.29219L60.6435 3.51639C60.647 3.69805 60.6431 3.88133 60.6315 4.0659Z"/>
</mask>
<path d="M47.5338 2.69151L48.2759 2.79999L48.3937 1.99413L47.5809 1.94299L47.5338 2.69151ZM12.742 0.502375L12.6949 1.2509L12.742 0.502375ZM42.7541 78.3299L42.707 79.0784L43.4555 79.1255L43.5026 78.377L42.7541 78.3299ZM55.9088 79.1576L55.1603 79.1105L55.1132 79.859L55.8617 79.9061L55.9088 79.1576ZM152.438 9.29219L152.485 8.54367L152.438 9.29219ZM60.6435 3.51639L60.6906 2.76787L59.8778 2.71673L59.8936 3.53099L60.6435 3.51639ZM53.6874 9.48089C53.1643 9.44798 52.6627 9.34743 52.1901 9.18869L51.7125 10.6106C52.308 10.8106 52.9384 10.9367 53.5932 10.9779L53.6874 9.48089ZM50.8221 8.51791C49.9695 7.95029 49.2778 7.16571 48.8215 6.24869L47.4786 6.91688C48.0517 8.06879 48.9198 9.05351 49.9908 9.76651L50.8221 8.51791ZM48.3275 4.80737C48.2293 4.3186 48.1924 3.80838 48.2253 3.28529L46.7283 3.19109C46.6871 3.84588 46.7331 4.48712 46.8569 5.10296L48.3275 4.80737ZM48.2253 3.28529C48.2287 3.23094 48.2329 3.17683 48.2377 3.12297L46.7438 2.98796C46.7377 3.05541 46.7325 3.12312 46.7283 3.19109L48.2253 3.28529ZM48.2546 2.96117C48.261 2.90718 48.2681 2.85345 48.2759 2.79999L46.7917 2.58303C46.7818 2.65013 46.7729 2.71753 46.7649 2.78521L48.2546 2.96117ZM47.5809 1.94299L45.648 1.82137L45.5538 3.31841L47.4867 3.44003L47.5809 1.94299ZM43.7151 1.69975L39.8494 1.45652L39.7552 2.95356L43.6209 3.19679L43.7151 1.69975ZM37.9165 1.3349L34.0507 1.09166L33.9565 2.5887L37.8223 2.83194L37.9165 1.3349ZM32.1179 0.970042L28.2521 0.726805L28.1579 2.22384L32.0237 2.46708L32.1179 0.970042ZM26.3192 0.605186L22.4535 0.361949L22.3593 1.85899L26.225 2.10223L26.3192 0.605186ZM20.5206 0.24033L16.6549 -0.00290694L16.5607 1.49413L20.4264 1.73737L20.5206 0.24033ZM14.722 -0.124526L12.7891 -0.246144L12.6949 1.2509L14.6278 1.37251L14.722 -0.124526ZM12.7891 -0.246144C12.0084 -0.29527 11.244 -0.240313 10.51 -0.0927833L10.8056 1.3778C11.4125 1.25582 12.0459 1.21006 12.6949 1.2509L12.7891 -0.246144ZM8.34795 0.648184C6.97478 1.33142 5.80084 2.36636 4.95088 3.64307L6.19948 4.47432C6.90405 3.41601 7.87786 2.5575 9.01615 1.99114L8.34795 0.648184ZM3.94475 5.69519C3.70638 6.40488 3.55604 7.15635 3.50692 7.93711L5.00396 8.0313C5.0448 7.38224 5.16959 6.75961 5.36668 6.17279L3.94475 5.69519ZM3.50692 7.93711L3.38176 9.92615L4.8788 10.0203L5.00396 8.0313L3.50692 7.93711ZM3.25661 11.9152L3.00631 15.8933L4.50335 15.9875L4.75365 12.0094L3.25661 11.9152ZM2.88115 17.8823L2.63085 21.8604L4.12789 21.9546L4.37819 17.9765L2.88115 17.8823ZM2.5057 23.8494L2.25539 27.8275L3.75243 27.9217L4.00274 23.9436L2.5057 23.8494ZM2.13024 29.8166L1.87993 33.7947L3.37697 33.8888L3.62728 29.9108L2.13024 29.8166ZM1.75478 35.7837L1.50447 39.7618L3.00151 39.856L3.25182 35.8779L1.75478 35.7837ZM1.37932 41.7508L1.12902 45.7289L2.62606 45.8231L2.87636 41.845L1.37932 41.7508ZM1.00386 47.7179L0.753557 51.696L2.2506 51.7902L2.5009 47.8121L1.00386 47.7179ZM0.628405 53.6851L0.378099 57.6632L1.87514 57.7574L2.12544 53.7793L0.628405 53.6851ZM0.252946 59.6522L0.00264088 63.6303L1.49968 63.7245L1.74999 59.7464L0.252946 59.6522ZM-0.122512 65.6193L-0.247665 67.6084L1.24937 67.7026L1.37453 65.7135L-0.122512 65.6193ZM-0.247665 67.6084C-0.296791 68.3891 -0.241833 69.1535 -0.0943025 69.8875L1.37628 69.5919C1.2543 68.985 1.20854 68.3516 1.24937 67.7026L-0.247665 67.6084ZM0.646667 72.0495C1.3299 73.4227 2.36485 74.5966 3.64155 75.4466L4.47281 74.198C3.41449 73.4934 2.55598 72.5196 1.98962 71.3813L0.646667 72.0495ZM5.69368 76.4527C6.40337 76.6911 7.15484 76.8414 7.93559 76.8906L8.02979 75.3935C7.38072 75.3527 6.75809 75.2279 6.17127 75.0308L5.69368 76.4527ZM7.93559 76.8906L9.86734 77.0121L9.96153 75.5151L8.02979 75.3935L7.93559 76.8906ZM11.7991 77.1337L15.6626 77.3768L15.7568 75.8797L11.8933 75.6366L11.7991 77.1337ZM17.5943 77.4983L21.4578 77.7414L21.552 76.2444L17.6885 76.0013L17.5943 77.4983ZM23.3896 77.863L27.253 78.106L27.3472 76.609L23.4838 76.3659L23.3896 77.863ZM29.1848 78.2276L33.0483 78.4707L33.1425 76.9737L29.279 76.7306L29.1848 78.2276ZM34.98 78.5922L38.8435 78.8353L38.9377 77.3383L35.0742 77.0952L34.98 78.5922ZM40.7753 78.9569L42.707 79.0784L42.8012 77.5814L40.8695 77.4598L40.7753 78.9569ZM43.5026 78.377C43.5026 78.377 43.5026 78.377 43.5026 78.377L43.5026 78.377C43.5026 78.377 43.5026 78.377 43.5026 78.377C43.5026 78.377 43.5026 78.377 43.5026 78.377C43.5026 78.377 43.5026 78.377 43.5026 78.377C43.5026 78.377 43.5026 78.377 43.5026 78.377C43.5026 78.377 43.5026 78.377 43.5026 78.377L42.0056 78.2828C42.0056 78.2828 42.0056 78.2828 42.0056 78.2828C42.0056 78.2828 42.0056 78.2828 42.0056 78.2828C42.0056 78.2828 42.0056 78.2828 42.0056 78.2828C42.0056 78.2828 42.0056 78.2828 42.0056 78.2828C42.0056 78.2828 42.0056 78.2828 42.0056 78.2828L42.0056 78.2828C42.0056 78.2828 42.0056 78.2828 42.0056 78.2828L43.5026 78.377ZM43.5026 78.3769C43.5026 78.3769 43.5026 78.3769 43.5026 78.3769C43.5026 78.3769 43.5026 78.3769 43.5026 78.3769C43.5026 78.3769 43.5026 78.3769 43.5026 78.3769C43.5026 78.3769 43.5026 78.3769 43.5026 78.3769C43.5026 78.3769 43.5026 78.3769 43.5026 78.3769L43.5026 78.3768C43.5026 78.3768 43.5026 78.3768 43.5026 78.3768L42.0056 78.2826C42.0056 78.2827 42.0056 78.2827 42.0056 78.2827L42.0056 78.2827C42.0056 78.2827 42.0056 78.2827 42.0056 78.2827C42.0056 78.2827 42.0056 78.2827 42.0056 78.2827C42.0056 78.2827 42.0056 78.2827 42.0056 78.2827C42.0056 78.2827 42.0056 78.2827 42.0056 78.2827C42.0056 78.2827 42.0056 78.2827 42.0056 78.2827L43.5026 78.3769ZM43.5026 78.3768C43.5355 77.8537 43.6361 77.3522 43.7948 76.8796L42.3729 76.402C42.1729 76.9974 42.0468 77.6279 42.0056 78.2826L43.5026 78.3768ZM44.4656 75.5116C45.0332 74.659 45.8178 73.9673 46.7348 73.511L46.0666 72.168C44.9147 72.7412 43.93 73.6093 43.217 74.6803L44.4656 75.5116ZM48.1762 73.017C48.6649 72.9187 49.1751 72.8818 49.6982 72.9148L49.7924 71.4177C49.1376 71.3765 48.4964 71.4226 47.8806 71.5464L48.1762 73.017ZM49.6982 72.9148C50.2213 72.9477 50.7229 73.0482 51.1955 73.2069L51.6731 71.785C51.0776 71.585 50.4472 71.4589 49.7924 71.4177L49.6982 72.9148ZM52.5635 73.8777C53.4161 74.4454 54.1078 75.2299 54.5641 76.147L55.907 75.4788C55.3339 74.3269 54.4658 73.3421 53.3948 72.6291L52.5635 73.8777ZM55.0581 77.5883C55.1563 78.077 55.1932 78.5873 55.1603 79.1104L56.6574 79.2045C56.6986 78.5498 56.6525 77.9085 56.5287 77.2927L55.0581 77.5883ZM55.1603 79.1104C55.1603 79.1104 55.1603 79.1104 55.1603 79.1104L55.1603 79.1104C55.1603 79.1104 55.1603 79.1104 55.1603 79.1104C55.1603 79.1104 55.1603 79.1104 55.1603 79.1104C55.1603 79.1104 55.1603 79.1104 55.1603 79.1104C55.1603 79.1104 55.1603 79.1104 55.1603 79.1104C55.1603 79.1104 55.1603 79.1104 55.1603 79.1104L56.6574 79.2046C56.6574 79.2046 56.6574 79.2046 56.6574 79.2046C56.6574 79.2046 56.6574 79.2046 56.6574 79.2046C56.6574 79.2046 56.6574 79.2046 56.6574 79.2046C56.6574 79.2046 56.6574 79.2046 56.6574 79.2046C56.6574 79.2046 56.6574 79.2046 56.6574 79.2046L56.6574 79.2046C56.6574 79.2046 56.6574 79.2046 56.6574 79.2045L55.1603 79.1104ZM55.1603 79.1105C55.1603 79.1105 55.1603 79.1105 55.1603 79.1105C55.1603 79.1105 55.1603 79.1105 55.1603 79.1105C55.1603 79.1105 55.1603 79.1105 55.1603 79.1105C55.1603 79.1105 55.1603 79.1105 55.1603 79.1105C55.1603 79.1105 55.1603 79.1105 55.1603 79.1105L55.1603 79.1105C55.1603 79.1105 55.1603 79.1105 55.1603 79.1105L56.6573 79.2047C56.6573 79.2047 56.6573 79.2047 56.6573 79.2047L56.6573 79.2047C56.6573 79.2047 56.6573 79.2047 56.6573 79.2047C56.6573 79.2047 56.6573 79.2047 56.6573 79.2047C56.6573 79.2047 56.6573 79.2047 56.6574 79.2047C56.6574 79.2047 56.6574 79.2047 56.6574 79.2047C56.6574 79.2047 56.6574 79.2047 56.6574 79.2047L55.1603 79.1105ZM55.8617 79.9061L57.9011 80.0345L57.9953 78.5374L55.9559 78.4091L55.8617 79.9061ZM59.9404 80.1628L64.019 80.4194L64.1132 78.9224L60.0346 78.6657L59.9404 80.1628ZM66.0584 80.5477L70.137 80.8044L70.2312 79.3073L66.1526 79.0507L66.0584 80.5477ZM72.1763 80.9327L76.255 81.1893L76.3492 79.6923L72.2705 79.4356L72.1763 80.9327ZM78.2943 81.3176L82.373 81.5743L82.4672 80.0772L78.3885 79.8206L78.2943 81.3176ZM84.4123 81.7026L88.491 81.9592L88.5852 80.4622L84.5065 80.2055L84.4123 81.7026ZM90.5303 82.0875L94.6089 82.3442L94.7031 80.8471L90.6245 80.5905L90.5303 82.0875ZM96.6483 82.4725L100.727 82.7291L100.821 81.2321L96.7425 80.9754L96.6483 82.4725ZM102.766 82.8574L106.845 83.1141L106.939 81.617L102.86 81.3604L102.766 82.8574ZM108.884 83.2424L112.963 83.499L113.057 82.002L108.978 81.7453L108.884 83.2424ZM115.002 83.6273L119.081 83.884L119.175 82.3869L115.096 82.1303L115.002 83.6273ZM121.12 84.0123L125.199 84.2689L125.293 82.7719L121.214 82.5152L121.12 84.0123ZM127.238 84.3972L131.317 84.6539L131.411 83.1568L127.332 82.9002L127.238 84.3972ZM133.356 84.7822L137.435 85.0388L137.529 83.5418L133.45 83.2851L133.356 84.7822ZM139.474 85.1671L143.553 85.4238L143.647 83.9267L139.568 83.6701L139.474 85.1671ZM145.592 85.5521L147.631 85.6804L147.726 84.1834L145.686 84.055L145.592 85.5521ZM147.631 85.6804C148.412 85.7295 149.177 85.6746 149.911 85.527L149.615 84.0564C149.008 84.1784 148.375 84.2242 147.726 84.1834L147.631 85.6804ZM152.073 84.7861C153.446 84.1028 154.62 83.0679 155.47 81.7912L154.221 80.9599C153.517 82.0182 152.543 82.8767 151.404 83.4431L152.073 84.7861ZM156.476 79.7391C156.714 79.0294 156.865 78.2779 156.914 77.4971L155.417 77.4029C155.376 78.052 155.251 78.6746 155.054 79.2615L156.476 79.7391ZM156.914 77.4971L157.039 75.5081L155.542 75.4139L155.417 77.4029L156.914 77.4971ZM157.164 73.5191L157.414 69.541L155.917 69.4468L155.667 73.4249L157.164 73.5191ZM157.539 67.5519L157.79 63.5738L156.293 63.4797L156.042 67.4577L157.539 67.5519ZM157.915 61.5848L158.165 57.6067L156.668 57.5125L156.418 61.4906L157.915 61.5848ZM158.29 55.6177L158.541 51.6396L157.044 51.5454L156.793 55.5235L158.29 55.6177ZM158.666 49.6506L158.916 45.6725L157.419 45.5783L157.169 49.5564L158.666 49.6506ZM159.041 43.6834L159.292 39.7053L157.795 39.6111L157.544 43.5892L159.041 43.6834ZM159.417 37.7163L159.667 33.7382L158.17 33.644L157.92 37.6221L159.417 37.7163ZM159.792 31.7492L160.042 27.7711L158.545 27.6769L158.295 31.655L159.792 31.7492ZM160.168 25.782L160.418 21.804L158.921 21.7098L158.671 25.6878L160.168 25.782ZM160.543 19.8149L160.668 17.8259L159.171 17.7317L159.046 19.7207L160.543 19.8149ZM160.668 17.8259C160.717 17.0451 160.662 16.2807 160.515 15.5468L159.044 15.8424C159.166 16.4493 159.212 17.0826 159.171 17.7317L160.668 17.8259ZM159.774 13.3847C159.091 12.0115 158.056 10.8376 156.779 9.98763L155.948 11.2362C157.006 11.9408 157.865 12.9146 158.431 14.0529L159.774 13.3847ZM154.727 8.9815C154.017 8.74314 153.266 8.5928 152.485 8.54367L152.391 10.0407C153.04 10.0816 153.662 10.2063 154.249 10.4034L154.727 8.9815ZM152.485 8.54367L150.445 8.41532L150.351 9.91236L152.391 10.0407L152.485 8.54367ZM148.405 8.28697L144.325 8.03027L144.231 9.52731L148.311 9.78401L148.405 8.28697ZM142.286 7.90192L138.206 7.64521L138.112 9.14225L142.191 9.39896L142.286 7.90192ZM136.166 7.51686L132.086 7.26016L131.992 8.7572L136.072 9.0139L136.166 7.51686ZM130.046 7.13181L125.967 6.87511L125.872 8.37215L129.952 8.62885L130.046 7.13181ZM123.927 6.74676L119.847 6.49005L119.753 7.98709L123.833 8.2438L123.927 6.74676ZM117.807 6.3617L113.727 6.105L113.633 7.60204L117.713 7.85874L117.807 6.3617ZM111.687 5.97665L107.608 5.71995L107.514 7.21699L111.593 7.47369L111.687 5.97665ZM105.568 5.5916L101.488 5.33489L101.394 6.83193L105.474 7.08863L105.568 5.5916ZM99.4482 5.20654L95.3685 4.94984L95.2743 6.44688L99.354 6.70358L99.4482 5.20654ZM93.3286 4.82149L89.2488 4.56479L89.1546 6.06182L93.2344 6.31853L93.3286 4.82149ZM87.2089 4.43643L83.1292 4.17973L83.035 5.67677L87.1148 5.93347L87.2089 4.43643ZM81.0893 4.05138L77.0096 3.79468L76.9154 5.29172L80.9951 5.54842L81.0893 4.05138ZM74.9697 3.66633L70.8899 3.40962L70.7957 4.90666L74.8755 5.16337L74.9697 3.66633ZM68.8501 3.28127L64.7703 3.02457L64.6761 4.52161L68.7559 4.77831L68.8501 3.28127ZM62.7304 2.89622L60.6906 2.76787L60.5964 4.26491L62.6363 4.39326L62.7304 2.89622ZM59.8936 3.53099C59.8947 3.58501 59.895 3.63921 59.8945 3.69357L61.3945 3.70572C61.395 3.63757 61.3946 3.56958 61.3933 3.50179L59.8936 3.53099ZM59.891 3.85621C59.8891 3.91025 59.8864 3.96446 59.883 4.0188L61.38 4.113C61.3843 4.04503 61.3876 3.97719 61.39 3.90951L59.891 3.85621ZM59.883 4.0188C59.8501 4.5419 59.7495 5.04347 59.5908 5.51606L61.0127 5.99366C61.2127 5.39819 61.3388 4.76778 61.38 4.113L59.883 4.0188ZM58.92 6.88409C58.3524 7.73669 57.5678 8.42839 56.6508 8.88466L57.319 10.2276C58.4709 9.65447 59.4556 8.78634 60.1686 7.71535L58.92 6.88409ZM55.2095 9.37867C54.7207 9.47692 54.2105 9.5138 53.6874 9.48089L53.5932 10.9779C54.248 11.0191 54.8892 10.973 55.505 10.8493L55.2095 9.37867ZM47.5338 2.69151L49.018 2.90847L49.2536 1.29676L47.628 1.19447L47.5338 2.69151ZM12.742 0.502375L12.6478 1.99941L12.742 0.502375ZM42.7541 78.3299L42.6599 79.8269L44.1569 79.9211L44.2511 78.4241L42.7541 78.3299ZM55.9088 79.1576L54.4118 79.0634L54.3176 80.5605L55.8146 80.6547L55.9088 79.1576ZM152.438 9.29219L152.532 7.79515L152.438 9.29219ZM60.6435 3.51639L60.7377 2.01935L59.112 1.91706L59.1438 3.54559L60.6435 3.51639ZM53.7345 8.73237C53.2772 8.7036 52.8401 8.61582 52.4289 8.47772L51.4737 11.3216C52.1306 11.5422 52.8255 11.6811 53.5461 11.7264L53.7345 8.73237ZM51.2377 7.89361C50.4943 7.39869 49.8908 6.71416 49.493 5.91459L46.8071 7.25098C47.4387 8.52033 48.395 9.60511 49.5752 10.3908L51.2377 7.89361ZM49.0628 4.65957C48.9773 4.23434 48.945 3.78964 48.9738 3.33239L45.9797 3.144C45.9344 3.86463 45.9851 4.57138 46.1216 5.25076L49.0628 4.65957ZM48.9738 3.33239C48.9768 3.28485 48.9804 3.23755 48.9847 3.19048L45.9969 2.92045C45.9901 2.99469 45.9844 3.06921 45.9797 3.144L48.9738 3.33239ZM48.9994 3.04915C49.005 3.00201 49.0112 2.95511 49.018 2.90847L46.0495 2.47455C46.0387 2.54847 46.0289 2.6227 46.0201 2.69724L48.9994 3.04915ZM47.628 1.19447L45.6951 1.07285L45.5067 4.06693L47.4396 4.18855L47.628 1.19447ZM43.7622 0.951234L39.8965 0.707997L39.7081 3.70208L43.5738 3.94531L43.7622 0.951234ZM37.9636 0.586378L34.0978 0.343141L33.9094 3.33722L37.7752 3.58046L37.9636 0.586378ZM32.165 0.221522L28.2992 -0.0217149L28.1108 2.97236L31.9766 3.2156L32.165 0.221522ZM26.3663 -0.143334L22.5006 -0.386571L22.3122 2.60751L26.178 2.85075L26.3663 -0.143334ZM20.5677 -0.508189L16.702 -0.751427L16.5136 2.24265L20.3793 2.48589L20.5677 -0.508189ZM14.7691 -0.873045L12.8362 -0.994664L12.6478 1.99941L14.5807 2.12103L14.7691 -0.873045ZM12.8362 -0.994664C11.9896 -1.04793 11.1597 -0.988378 10.3622 -0.828077L10.9534 2.1131C11.4968 2.00388 12.0646 1.96272 12.6478 1.99941L12.8362 -0.994664ZM8.01385 -0.023291C6.52324 0.718376 5.24924 1.84154 4.32658 3.22744L6.82378 4.88995C7.45566 3.94083 8.3294 3.17054 9.35024 2.66261L8.01385 -0.023291ZM3.23378 5.4564C2.97478 6.22752 2.81167 7.04341 2.7584 7.89001L5.75248 8.0784C5.78917 7.49518 5.90119 6.93697 6.07765 6.41158L3.23378 5.4564ZM2.7584 7.89001L2.63325 9.87905L5.62732 10.0674L5.75248 8.0784L2.7584 7.89001ZM2.50809 11.8681L2.25779 15.8462L5.25187 16.0346L5.50217 12.0565L2.50809 11.8681ZM2.13263 17.8352L1.88233 21.8133L4.87641 22.0017L5.12671 18.0236L2.13263 17.8352ZM1.75718 23.8023L1.50687 27.7804L4.50095 27.9688L4.75126 23.9907L1.75718 23.8023ZM1.38172 29.7695L1.13141 33.7476L4.12549 33.9359L4.3758 29.9579L1.38172 29.7695ZM1.00626 35.7366L0.755954 39.7147L3.75003 39.9031L4.00034 35.925L1.00626 35.7366ZM0.630801 41.7037L0.380496 45.6818L3.37457 45.8702L3.62488 41.8921L0.630801 41.7037ZM0.255343 47.6708L0.00503748 51.6489L2.99912 51.8373L3.24942 47.8592L0.255343 47.6708ZM-0.120115 53.638L-0.370421 57.6161L2.62366 57.8045L2.87396 53.8264L-0.120115 53.638ZM-0.495573 59.6051L-0.745879 63.5832L2.2482 63.7716L2.49851 59.7935L-0.495573 59.6051ZM-0.871032 65.5722L-0.996184 67.5613L1.99789 67.7497L2.12305 65.7606L-0.871032 65.5722ZM-0.996184 67.5613C-1.04945 68.4079 -0.989897 69.2378 -0.829596 70.0353L2.11158 69.4441C2.00236 68.9007 1.9612 68.3329 1.99789 67.7497L-0.996184 67.5613ZM-0.0248079 72.3836C0.71686 73.8743 1.84003 75.1482 3.22592 76.0709L4.88844 73.5737C3.93932 72.9418 3.16902 72.0681 2.66109 71.0472L-0.0248079 72.3836ZM5.45488 77.1637C6.226 77.4227 7.0419 77.5858 7.8885 77.6391L8.07689 74.645C7.49367 74.6083 6.93545 74.4963 6.41007 74.3198L5.45488 77.1637ZM7.8885 77.6391L9.82024 77.7606L10.0086 74.7666L8.07689 74.645L7.8885 77.6391ZM11.752 77.8822L15.6155 78.1253L15.8039 75.1312L11.9404 74.8881L11.752 77.8822ZM17.5472 78.2468L21.4107 78.4899L21.5991 75.4958L17.7356 75.2528L17.5472 78.2468ZM23.3425 78.6115L27.2059 78.8546L27.3943 75.8605L23.5308 75.6174L23.3425 78.6115ZM29.1377 78.9761L33.0012 79.2192L33.1896 76.2251L29.3261 75.982L29.1377 78.9761ZM34.9329 79.3408L38.7964 79.5839L38.9848 76.5898L35.1213 76.3467L34.9329 79.3408ZM40.7282 79.7054L42.6599 79.8269L42.8483 76.8329L40.9166 76.7113L40.7282 79.7054ZM44.2511 78.4241C44.2511 78.4241 44.2511 78.4241 44.2511 78.4241L44.2511 78.4241C44.2511 78.4241 44.2511 78.4241 44.2511 78.4241C44.2511 78.4241 44.2511 78.4241 44.2511 78.4241C44.2511 78.4241 44.2511 78.4241 44.2511 78.4241C44.2511 78.4241 44.2511 78.4241 44.2511 78.4241C44.2511 78.424 44.2511 78.424 44.2511 78.424L41.2571 78.2357C41.2571 78.2357 41.2571 78.2357 41.2571 78.2357C41.2571 78.2357 41.2571 78.2357 41.2571 78.2357C41.2571 78.2357 41.2571 78.2357 41.2571 78.2357C41.2571 78.2357 41.2571 78.2357 41.2571 78.2357C41.2571 78.2357 41.2571 78.2357 41.2571 78.2357L41.2571 78.2357C41.2571 78.2357 41.2571 78.2357 41.2571 78.2357L44.2511 78.4241ZM44.2511 78.424C44.2511 78.424 44.2511 78.424 44.2511 78.424C44.2511 78.424 44.2511 78.424 44.2511 78.424C44.2512 78.424 44.2512 78.424 44.2512 78.424C44.2512 78.424 44.2512 78.424 44.2512 78.424C44.2512 78.424 44.2512 78.424 44.2512 78.424L44.2512 78.4239C44.2512 78.4239 44.2512 78.4239 44.2512 78.4239L41.2571 78.2355C41.2571 78.2356 41.2571 78.2356 41.2571 78.2356L41.2571 78.2356C41.2571 78.2356 41.2571 78.2356 41.2571 78.2356C41.2571 78.2356 41.2571 78.2356 41.2571 78.2356C41.2571 78.2356 41.2571 78.2356 41.2571 78.2356C41.2571 78.2356 41.2571 78.2356 41.2571 78.2356C41.2571 78.2356 41.2571 78.2356 41.2571 78.2356L44.2511 78.424ZM44.2512 78.4239C44.2799 77.9667 44.3677 77.5295 44.5058 77.1184L41.6619 76.1632C41.4413 76.8201 41.3024 77.5149 41.2571 78.2355L44.2512 78.4239ZM45.0899 75.9272C45.5848 75.1838 46.2694 74.5803 47.0689 74.1825L45.7325 71.4966C44.4632 72.1281 43.3784 73.0845 42.5927 74.2647L45.0899 75.9272ZM48.324 73.7523C48.7492 73.6668 49.1939 73.6345 49.6511 73.6633L49.8395 70.6692C49.1189 70.6239 48.4121 70.6745 47.7328 70.8111L48.324 73.7523ZM49.6511 73.6633C50.1084 73.692 50.5455 73.7798 50.9567 73.9179L51.9119 71.074C51.255 70.8534 50.5602 70.7145 49.8395 70.6692L49.6511 73.6633ZM52.1479 74.502C52.8913 74.997 53.4948 75.6815 53.8926 76.4811L56.5785 75.1447C55.9469 73.8753 54.9906 72.7905 53.8104 72.0048L52.1479 74.502ZM54.3228 77.7361C54.4083 78.1613 54.4406 78.606 54.4118 79.0633L57.4059 79.2516C57.4512 78.531 57.4005 77.8243 57.264 77.1449L54.3228 77.7361ZM54.4118 79.0633C54.4118 79.0633 54.4118 79.0633 54.4118 79.0633L54.4118 79.0633C54.4118 79.0633 54.4118 79.0633 54.4118 79.0633C54.4118 79.0633 54.4118 79.0633 54.4118 79.0633C54.4118 79.0633 54.4118 79.0633 54.4118 79.0633C54.4118 79.0633 54.4118 79.0633 54.4118 79.0633C54.4118 79.0633 54.4118 79.0633 54.4118 79.0633L57.4059 79.2517C57.4059 79.2517 57.4059 79.2517 57.4059 79.2517C57.4059 79.2517 57.4059 79.2517 57.4059 79.2517C57.4059 79.2517 57.4059 79.2517 57.4059 79.2517C57.4059 79.2517 57.4059 79.2517 57.4059 79.2517C57.4059 79.2517 57.4059 79.2517 57.4059 79.2517L57.4059 79.2517C57.4059 79.2517 57.4059 79.2517 57.4059 79.2516L54.4118 79.0633ZM54.4118 79.0634C54.4118 79.0634 54.4118 79.0634 54.4118 79.0634C54.4118 79.0634 54.4118 79.0634 54.4118 79.0634C54.4118 79.0634 54.4118 79.0634 54.4118 79.0634C54.4118 79.0634 54.4118 79.0634 54.4118 79.0634C54.4118 79.0634 54.4118 79.0634 54.4118 79.0634L54.4118 79.0634C54.4118 79.0634 54.4118 79.0634 54.4118 79.0634L57.4059 79.2518C57.4059 79.2518 57.4059 79.2518 57.4059 79.2518L57.4059 79.2518C57.4059 79.2518 57.4059 79.2518 57.4059 79.2518C57.4059 79.2518 57.4059 79.2518 57.4059 79.2518C57.4059 79.2518 57.4059 79.2518 57.4059 79.2518C57.4059 79.2518 57.4059 79.2518 57.4059 79.2518C57.4059 79.2518 57.4059 79.2518 57.4059 79.2518L54.4118 79.0634ZM55.8146 80.6547L57.854 80.783L58.0424 77.7889L56.003 77.6606L55.8146 80.6547ZM59.8933 80.9113L63.9719 81.1679L64.1603 78.1738L60.0817 77.9172L59.8933 80.9113ZM66.0113 81.2962L70.0899 81.5529L70.2783 78.5588L66.1997 78.3022L66.0113 81.2962ZM72.1293 81.6812L76.2079 81.9378L76.3963 78.9437L72.3176 78.6871L72.1293 81.6812ZM78.2472 82.0661L82.3259 82.3228L82.5143 79.3287L78.4356 79.0721L78.2472 82.0661ZM84.3652 82.4511L88.4439 82.7077L88.6323 79.7136L84.5536 79.457L84.3652 82.4511ZM90.4832 82.836L94.5618 83.0927L94.7502 80.0986L90.6716 79.842L90.4832 82.836ZM96.6012 83.221L100.68 83.4776L100.868 80.4835L96.7896 80.2269L96.6012 83.221ZM102.719 83.6059L106.798 83.8626L106.986 80.8685L102.908 80.6119L102.719 83.6059ZM108.837 83.9909L112.916 84.2475L113.104 81.2534L109.026 80.9968L108.837 83.9909ZM114.955 84.3758L119.034 84.6325L119.222 81.6384L115.144 81.3818L114.955 84.3758ZM121.073 84.7608L125.152 85.0174L125.34 82.0233L121.261 81.7667L121.073 84.7608ZM127.191 85.1457L131.27 85.4024L131.458 82.4083L127.379 82.1517L127.191 85.1457ZM133.309 85.5307L137.388 85.7873L137.576 82.7932L133.497 82.5366L133.309 85.5307ZM139.427 85.9156L143.506 86.1723L143.694 83.1782L139.615 82.9216L139.427 85.9156ZM145.545 86.3006L147.584 86.4289L147.773 83.4348L145.733 83.3065L145.545 86.3006ZM147.584 86.4289C148.431 86.4822 149.261 86.4226 150.058 86.2623L149.467 83.3211C148.924 83.4304 148.356 83.4715 147.773 83.4348L147.584 86.4289ZM152.407 85.4575C153.897 84.7159 155.171 83.5927 156.094 82.2068L153.597 80.5443C152.965 81.4934 152.091 82.2637 151.07 82.7716L152.407 85.4575ZM157.187 79.9779C157.446 79.2067 157.609 78.3908 157.662 77.5442L154.668 77.3558C154.631 77.9391 154.519 78.4973 154.343 79.0227L157.187 79.9779ZM157.662 77.5442L157.787 75.5552L154.793 75.3668L154.668 77.3558L157.662 77.5442ZM157.912 73.5662L158.163 69.5881L155.169 69.3997L154.918 73.3778L157.912 73.5662ZM158.288 67.599L158.538 63.6209L155.544 63.4326L155.294 67.4106L158.288 67.599ZM158.663 61.6319L158.914 57.6538L155.92 57.4654L155.669 61.4435L158.663 61.6319ZM159.039 55.6648L159.289 51.6867L156.295 51.4983L156.045 55.4764L159.039 55.6648ZM159.414 49.6977L159.665 45.7196L156.671 45.5312L156.42 49.5093L159.414 49.6977ZM159.79 43.7305L160.04 39.7524L157.046 39.564L156.796 43.5421L159.79 43.7305ZM160.165 37.7634L160.416 33.7853L157.421 33.5969L157.171 37.575L160.165 37.7634ZM160.541 31.7963L160.791 27.8182L157.797 27.6298L157.547 31.6079L160.541 31.7963ZM160.916 25.8291L161.166 21.8511L158.172 21.6627L157.922 25.6408L160.916 25.8291ZM161.292 19.862L161.417 17.873L158.423 17.6846L158.298 19.6736L161.292 19.862ZM161.417 17.873C161.47 17.0264 161.41 16.1965 161.25 15.399L158.309 15.9902C158.418 16.5335 158.459 17.1014 158.423 17.6846L161.417 17.873ZM160.445 13.0506C159.704 11.56 158.581 10.286 157.195 9.36333L155.532 11.8605C156.481 12.4924 157.252 13.3662 157.759 14.387L160.445 13.0506ZM154.966 8.27054C154.195 8.01153 153.379 7.84842 152.532 7.79515L152.344 10.7892C152.927 10.8259 153.485 10.9379 154.01 11.1144L154.966 8.27054ZM152.532 7.79515L150.492 7.6668L150.304 10.6609L152.344 10.7892L152.532 7.79515ZM148.452 7.53845L144.373 7.28175L144.184 10.2758L148.264 10.5325L148.452 7.53845ZM142.333 7.1534L138.253 6.8967L138.065 9.89077L142.144 10.1475L142.333 7.1534ZM136.213 6.76834L132.133 6.51164L131.945 9.50572L136.025 9.76242L136.213 6.76834ZM130.093 6.38329L126.014 6.12659L125.825 9.12067L129.905 9.37737L130.093 6.38329ZM123.974 5.99824L119.894 5.74153L119.706 8.73561L123.785 8.99232L123.974 5.99824ZM117.854 5.61318L113.774 5.35648L113.586 8.35056L117.666 8.60726L117.854 5.61318ZM111.735 5.22813L107.655 4.97143L107.466 7.96551L111.546 8.22221L111.735 5.22813ZM105.615 4.84308L101.535 4.58637L101.347 7.58045L105.427 7.83715L105.615 4.84308ZM99.4953 4.45802L95.4155 4.20132L95.2272 7.1954L99.3069 7.4521L99.4953 4.45802ZM93.3757 4.07297L89.2959 3.81627L89.1075 6.81034L93.1873 7.06705L93.3757 4.07297ZM87.256 3.68791L83.1763 3.43121L82.9879 6.42529L87.0677 6.68199L87.256 3.68791ZM81.1364 3.30286L77.0567 3.04616L76.8683 6.04024L80.948 6.29694L81.1364 3.30286ZM75.0168 2.91781L70.937 2.6611L70.7486 5.65518L74.8284 5.91189L75.0168 2.91781ZM68.8972 2.53275L64.8174 2.27605L64.629 5.27013L68.7088 5.52683L68.8972 2.53275ZM62.7775 2.1477L60.7377 2.01935L60.5493 5.01343L62.5892 5.14178L62.7775 2.1477ZM59.1438 3.54559C59.1447 3.59272 59.1449 3.64003 59.1446 3.68749L62.1445 3.7118C62.1451 3.63674 62.1446 3.56187 62.1432 3.48719L59.1438 3.54559ZM59.1415 3.82956C59.1398 3.87678 59.1374 3.92417 59.1345 3.97171L62.1285 4.1601C62.1332 4.08531 62.1369 4.01067 62.1396 3.93617L59.1415 3.82956ZM59.1345 3.97171C59.1057 4.42896 59.0179 4.86611 58.8798 5.27727L61.7237 6.23245C61.9443 5.57556 62.0832 4.88073 62.1285 4.1601L59.1345 3.97171ZM58.2957 6.46846C57.8008 7.21187 57.1163 7.81535 56.3167 8.21318L57.6531 10.8991C58.9224 10.2675 60.0072 9.31116 60.7929 8.13098L58.2957 6.46846ZM55.0617 8.64338C54.6364 8.72885 54.1917 8.76114 53.7345 8.73237L53.5461 11.7264C54.2667 11.7718 54.9735 11.7211 55.6528 11.5846L55.0617 8.64338Z" fill="white" mask="url(#path-1-inside-1_821_11017)"/>
</g>
<path fill-rule="evenodd" clip-rule="evenodd" d="M16 3H47.189C47.8551 5.58784 50.2042 7.5 53 7.5C55.7958 7.5 58.1449 5.58784 58.811 3H142C146.418 3 150 6.58172 150 11V64C150 68.4183 146.418 72 142 72H58.6586C57.8349 69.6696 55.6124 68 53 68C50.3876 68 48.1651 69.6696 47.3414 72H16C11.5817 72 8 68.4183 8 64V11C8 6.58172 11.5817 3 16 3Z" fill="#D85151"/>
<path fill-rule="evenodd" clip-rule="evenodd" d="M53 68V7.5C55.7958 7.5 58.1449 5.58784 58.811 3H142C146.418 3 150 6.58172 150 11V64C150 68.4183 146.418 72 142 72H58.6586C57.8349 69.6696 55.6124 68 53 68Z" fill="url(#paint0_linear_821_11017)"/>
<defs>
<linearGradient id="paint0_linear_821_11017" x1="54" y1="38.5" x2="74.5" y2="38.5" gradientUnits="userSpaceOnUse">
<stop stop-color="#C94747"/>
<stop offset="1" stop-color="#D85151" stop-opacity="0"/>
</linearGradient>
</defs>
</svg>
