<svg width="32" height="32" viewBox="0 0 32 32" fill="none" xmlns="http://www.w3.org/2000/svg">
<path d="M31.9542 4.83681C31.8745 4.61043 31.6722 4.44968 31.4337 4.42318L27.9532 4.0365L27.5665 0.555996C27.5399 0.316933 27.3786 0.114371 27.1515 0.0349958C26.9245 -0.0443167 26.6721 0.0136208 26.5023 0.184058C26.4264 0.260246 27.2126 -0.528817 21.545 5.1595C19.3724 3.90875 16.9095 3.25 14.3828 3.25C6.43825 3.25 0.0078125 9.67943 0.0078125 17.625C0.0078125 25.5695 6.43725 32 14.3828 32C22.3274 32 28.7578 25.5706 28.7578 17.625C28.7578 15.0983 28.0991 12.6354 26.8484 10.4628C31.3931 5.90137 31.7894 5.5035 31.8071 5.48587C31.8044 5.4885 31.7963 5.49668 31.8077 5.48525C31.9769 5.31512 32.0339 5.06312 31.9542 4.83681ZM26.4681 1.99031C26.4668 1.99168 26.4623 1.99618 26.4607 1.99781C26.4616 1.99681 26.4639 1.9945 26.4681 1.99031ZM26.4681 1.99031L26.7329 4.37331C26.0876 5.01943 22.9325 8.179 22.6404 8.4715L22.3767 6.09568C26.1125 2.34712 26.4561 2.00237 26.4681 1.99031ZM10.7081 12.5233C10.8773 12.8241 11.2584 12.9309 11.5592 12.7616C12.483 12.242 13.3802 12 14.3828 12C15.6713 12 16.8946 12.4336 17.8884 13.2301L16.1041 15.0169C15.5977 14.6807 15.0041 14.5001 14.3829 14.5001C12.6597 14.5001 11.2579 15.9019 11.2579 17.6251C11.2579 19.3482 12.6597 20.7501 14.3829 20.7501C16.106 20.7501 17.5079 19.3482 17.5079 17.6251C17.5079 17.0021 17.3263 16.4071 16.9886 15.9001L18.7729 14.1132C19.5726 15.1082 20.0079 16.3337 20.0079 17.6251C20.0079 20.7267 17.4845 23.2501 14.3829 23.2501C11.2812 23.2501 8.75787 20.7267 8.75787 17.6251C8.75787 17.0876 8.82306 16.697 8.921 16.276C8.99919 15.9398 8.79 15.6039 8.45381 15.5257C8.11775 15.4475 7.78175 15.6567 7.7035 15.9929C7.56456 16.5903 7.50788 17.0632 7.50788 17.6251C7.50788 21.4159 10.592 24.5001 14.3829 24.5001C18.1737 24.5001 21.2579 21.4159 21.2579 17.6251C21.2579 15.9991 20.6947 14.4585 19.6611 13.2237L21.4311 11.4511C23.2019 13.4682 24.0192 16.1209 23.6817 18.8231C23.0844 23.4847 19.0869 27 14.3828 27C9.21344 27 5.00781 22.7944 5.00781 17.625C5.00781 12.4556 9.21344 8.25 14.3828 8.25C16.6714 8.25 18.837 9.069 20.5471 10.5677L18.7766 12.3406C17.5432 11.3109 16.0052 10.75 14.3828 10.75C13.1736 10.75 12.0495 11.0516 10.9464 11.6721C10.6456 11.8414 10.5388 12.2224 10.7081 12.5233ZM13.9411 18.0672C14.1841 18.3099 14.5799 18.3121 14.825 18.0666L16.0743 16.8156C16.1943 17.0651 16.2578 17.3401 16.2578 17.625C16.2578 18.6589 15.4167 19.5 14.3828 19.5C13.3489 19.5 12.5078 18.6589 12.5078 17.625C12.5078 16.5911 13.3489 15.75 14.3828 15.75C14.6666 15.75 14.9409 15.8131 15.1898 15.9324L13.9405 17.1834C13.6966 17.4276 13.6969 17.8233 13.9411 18.0672ZM27.5078 17.625C27.5078 24.8621 21.6199 30.75 14.3828 30.75C7.14569 30.75 1.25781 24.8621 1.25781 17.625C1.25781 10.3879 7.14563 4.5 14.3828 4.5C16.7791 4.5 19.1121 5.14843 21.1501 6.37737L21.5086 9.60487L21.4319 9.68156C19.4844 7.94818 17.0049 7 14.3828 7C8.52419 7 3.75781 11.7664 3.75781 17.625C3.75781 23.4836 8.52419 28.25 14.3828 28.25C19.714 28.25 24.2446 24.2656 24.9218 18.9799C25.3076 15.8898 24.3615 12.8575 22.3165 10.5643L22.3838 10.497L25.6303 10.8575C26.8593 12.8956 27.5078 15.2286 27.5078 17.625ZM25.9123 9.63112L23.5144 9.36481C24.7019 8.17581 24.9071 7.97043 24.9193 7.95825C24.9038 7.97381 24.4654 8.41268 27.6171 5.25681L30.0072 5.52231C29.9162 5.61368 30.7165 4.81068 25.9123 9.63112Z" fill="#1D2735"/>
</svg>
